<svg version="1.1" id="svg3" xmlns="http://www.w3.org/2000/svg" xmlns:xlink="http://www.w3.org/1999/xlink" x="0px" y="0px" viewBox="0 0 123.8 90.7" style="enable-background:new 0 0 123.8 90.7;" xml:space="preserve" role="img" aria-labelledby="title-svg3" width="123" height="90"><desc id="title-svg3">Logo Club Alpin Suisse CAS</desc>
<g id="Hilfslinien">
</g>
<g id="SAC_franz">
	<g>
		<g>
			<g>
				<g>
					<path style="fill:#D4D5D5;" d="M123.8,49.5c0-0.7-0.3-1.4-1-2c-0.9-0.9-1.9-1.7-3.1-2.4l0.1-0.1c0.3-0.3,0.5-0.7,0.5-1.2       s-0.2-1.1-0.6-1.6c-0.9-1.2-2-2.4-3.2-3.4c0.5-0.7,1.4-2,1.4-2c0.1-0.1,0.1-0.3,0.1-0.4c0-0.1,0-0.2-0.1-0.3       c0.3-0.5,1.2-2.2,1.2-2.2c0.1-0.1,0.1-0.2,0.1-0.3c0-0.2-0.1-0.5-0.3-0.6c-0.3-0.2-0.7-0.2-1,0.1c0,0-1.3,1.5-1.6,1.9       c-0.2,0-0.5,0.1-0.6,0.3c0,0-0.8,1.2-1.3,1.9c-2-1.3-4.2-2.3-6.6-2.9c-0.6-0.4-1.2-0.8-1.9-1.1c-0.1-0.2-0.2-0.5-0.2-0.7       c0.1-0.1,0.2-0.3,0.3-0.4c0.3-0.3,0.7-0.7,1-1.4c0.2-0.5,0.3-0.9,0.3-1.4c0-0.8-0.3-1.6-0.9-2l-0.1-0.1       c-0.2-0.1-0.4-0.2-0.6-0.1c-0.2,0-0.4,0.2-0.5,0.4l-0.1,0.2c-0.5,0.9-1.1,1.6-1.7,2c-0.1,0-0.2-0.1-0.3-0.1c0,0-0.1,0-0.2-0.1       c0-0.4-0.1-0.8-0.1-1.2c0-1.1,0.1-2,0.4-2.4c0.1-0.3,0.3-0.3,0.3-0.3s0.1,0.1,0.3,0.3l0,0c0.2,0.3,0.4,0.4,0.8,0.4       c0.5,0,0.9-0.4,0.9-0.9c0-0.1,0-0.2,0-0.2l0,0c-0.1-0.3-0.4-1.1-1.2-1.4c-0.3-0.2-0.9-0.3-1.6,0c-0.2,0.1-0.5,0.3-0.7,0.4       c-0.4-0.3-0.8-0.5-1.2-0.5c-0.5,0-0.9,0.2-1.2,0.7c-0.2,0.3-0.4,0.7-0.4,1.6c0,0.3,0,0.8,0.1,1.3c-0.2,0-0.4,0.1-0.6,0.2       c-0.4,0.4-0.6,0.9-0.6,1.5c0,0.1,0,0.2,0,0.3c0.1,0.5,0.3,1,0.6,1.4c-0.3,0.2-0.5,0.5-0.6,1c-0.4,0.2-2.5,1.5-2.5,1.5       c-0.5,0.3-0.8,0.8-0.8,1.5V35c0,0.1,0,0.3,0.1,0.5c-1.2,0.5-2.3,1.1-3.4,1.8c-0.6-0.9-1.1-1.9-1.4-2.9       c-0.1-0.3-0.3-0.5-0.6-0.5c-0.6-0.1-1.2,0-1.7,0.4c-0.5,0.3-0.9,0.9-1,1.5c0,0.1,0,0.1,0,0.2c0,0.2,0.1,0.4,0.3,0.6       c0.9,0.7,1.6,1.6,2.3,2.5c-1.2,1-2.2,2.1-3.2,3.4c-0.4,0.5-0.6,1.1-0.6,1.6s0.2,0.9,0.5,1.2c0,0,0,0,0.1,0.1       C85,46.1,84,47,83.1,47.8c-0.6,0.6-1,1.4-1,2c0,0.5,0.2,0.9,0.5,1.2c0,0,2.1,2.1,2.7,2.7c-0.6,1.2-0.9,2.3-1,3.3l0,0       c0,0.5,0.4,0.9,0.9,0.9c0.4,0,0.7-0.2,0.8-0.6l0,0c0.1-0.3,0.3-0.6,0.7-0.9c0,0.4-0.1,0.7-0.1,1c0,1.2,0.3,2.1,0.8,3.1       c0.1,0.3,0.5,0.5,0.8,0.5c0.5,0,0.9-0.4,0.9-0.9c0-1.7,1.1-3.4,2.2-4.6c0.6,3.1,1.4,5.8,2.6,8c0.4,0.8,0.9,1.5,1.4,2.2       c-0.2,0.3-0.4,0.6-0.4,0.6c-0.1,0.1-0.1,0.2-0.1,0.3c-0.1,0.1-0.1,0.1-0.2,0.1c-0.4,0-1.1-0.5-2.1-1.8       c-1.1-1.5-1.3-3.8-1.3-3.8c0-0.4-0.3-0.7-0.7-0.7c-0.4,0-0.7,0.2-0.8,0.6c-0.4,2.4,0.7,6.3,3.3,8.6c2.4,2.1,4.8,2.8,6.3,2.9       c0.2,0,0.4-0.1,0.6-0.2c0.1-0.1,0.2-0.3,0.2-0.5v-0.1L100,71c0-0.3-0.3-0.6-0.6-0.6c0,0-1.6-0.4-2.5-1.1       c-0.3-0.3-0.5-0.4-0.5-0.7c0-0.1,0.1-0.3,0.2-0.6c0.1-0.1,0.2-0.1,0.3-0.2c1.6,1.5,3.5,2.6,5.6,3.1l0,0c0.1,0,0.2,0,0.4,0l0,0       c2-0.5,3.8-1.5,5.3-2.8c0.1,0,0.1,0,0.2,0c0,0,0.2,0,0.3,0c0.3,0.5,1.5,2.2,1.5,2.2c0.1,0.2,0.4,0.3,0.6,0.3       c0.4,0.4,1.6,1.9,1.6,1.9c0.2,0.3,0.7,0.3,1,0.1c0.2-0.1,0.3-0.4,0.3-0.6c0-0.1,0-0.2-0.1-0.3c0,0-0.9-1.7-1.2-2.2       c0-0.1,0.1-0.2,0.1-0.3c0-0.1,0-0.3-0.1-0.4c0,0-0.6-0.9-1-1.5c0.7-0.8,1.7-2.8,2.1-8.3c0.3-1.1,0.6-2.3,0.8-3.5       c1,1.2,2.1,2.9,2.2,4.6v0.1c0.1,0.4,0.4,0.8,0.9,0.8c0.3,0,0.6-0.2,0.8-0.5c0.6-1,0.9-1.9,0.9-3.2c0-0.3,0-0.6-0.1-1       c0.4,0.3,0.5,0.6,0.7,0.9c0.1,0.3,0.5,0.5,0.8,0.5c0.5,0,0.9-0.4,0.9-0.9c0-1.1-0.4-2.2-1-3.3c0.6-0.6,2.7-2.7,2.7-2.7       C123.6,50.4,123.8,50,123.8,49.5z"></path>
				</g>
				<g>
					<path style="fill:#FFFFFF;" d="M123.2,48.9c0-0.7-0.3-1.4-1-2c-0.9-0.9-1.9-1.7-3.1-2.4l0.1-0.1c0.3-0.3,0.5-0.7,0.5-1.2       s-0.2-1.1-0.6-1.6c-0.9-1.2-2-2.4-3.2-3.4c0.5-0.7,1.4-2,1.4-2c0.1-0.1,0.1-0.3,0.1-0.4c0-0.1,0-0.2-0.1-0.3       c0.3-0.5,1.2-2.2,1.2-2.2c0.1-0.1,0.1-0.2,0.1-0.3c0-0.2-0.1-0.5-0.3-0.6c-0.3-0.2-0.7-0.2-1,0.1c0,0-1.3,1.5-1.6,1.9       c-0.2,0-0.5,0.1-0.6,0.3c0,0-0.8,1.2-1.3,1.9c-2-1.3-4.2-2.3-6.6-2.9c-0.6-0.4-1.2-0.8-1.9-1.1c-0.1-0.2-0.2-0.5-0.2-0.7       c0.1-0.1,0.2-0.3,0.3-0.4c0.3-0.3,0.7-0.7,1-1.4c0.2-0.5,0.3-0.9,0.3-1.4c0-0.8-0.3-1.6-0.9-2l-0.1-0.1       c-0.2-0.1-0.4-0.2-0.6-0.1c-0.2,0-0.4,0.2-0.5,0.4l-0.2,0.1c-0.5,0.9-1.1,1.6-1.7,2c-0.1,0-0.2-0.1-0.3-0.1c0,0-0.1,0-0.2-0.1       c0-0.4-0.1-0.8-0.1-1.2c0-1.1,0.1-2,0.4-2.4c0.1-0.3,0.3-0.3,0.3-0.3s0.1,0.1,0.3,0.3l0,0c0.2,0.3,0.4,0.4,0.8,0.4       c0.5,0,0.9-0.4,0.9-0.9c0-0.1,0-0.2,0-0.2l0,0c-0.1-0.3-0.4-1.1-1.2-1.4c-0.3-0.2-0.9-0.3-1.6,0c-0.2,0.1-0.5,0.3-0.7,0.4       c-0.4-0.3-0.8-0.5-1.2-0.5c-0.5,0-0.9,0.2-1.2,0.7c-0.2,0.3-0.4,0.7-0.4,1.6c0,0.3,0,0.8,0.1,1.3c-0.2,0-0.4,0.1-0.6,0.2       c-0.4,0.4-0.6,0.9-0.6,1.5c0,0.1,0,0.2,0,0.3c0.1,0.5,0.3,1,0.6,1.4c-0.3,0.2-0.5,0.5-0.6,1c-0.4,0.2-2.5,1.5-2.5,1.5       c-0.5,0.3-0.8,0.8-0.8,1.5v0.3c0,0.1,0,0.3,0.1,0.5c-1.2,0.5-2.3,1.1-3.4,1.8c-0.6-0.9-1.1-1.9-1.4-2.9       c-0.1-0.3-0.3-0.5-0.6-0.5c-0.6-0.1-1.2,0-1.7,0.4c-0.5,0.3-0.9,0.9-1,1.5c0,0.1,0,0.1,0,0.2c0,0.2,0.1,0.4,0.3,0.6       c0.9,0.7,1.6,1.6,2.3,2.5c-1.2,1-2.2,2.1-3.2,3.4c-0.4,0.5-0.6,1.1-0.6,1.6s0.2,0.9,0.5,1.2c0,0,0,0,0.1,0.1       c-1.2,0.7-2.2,1.6-3.1,2.4c-0.6,0.6-1,1.4-1,2c0,0.5,0.2,0.9,0.5,1.2c0,0,2.1,2.1,2.7,2.7c-0.6,1.2-0.9,2.3-1,3.3l0,0       c0,0.5,0.4,0.9,0.9,0.9c0.4,0,0.7-0.2,0.8-0.6l0,0c0.1-0.3,0.3-0.6,0.7-0.9c0,0.4-0.1,0.7-0.1,1c0,1.2,0.3,2.1,0.8,3.1       c0.1,0.3,0.5,0.5,0.8,0.5c0.5,0,0.9-0.4,0.9-0.9c0-1.7,1.1-3.4,2.2-4.6c0.6,3.1,1.4,5.8,2.6,8c0.4,0.8,0.9,1.5,1.4,2.2       c-0.2,0.3-0.4,0.6-0.4,0.6c-0.1,0.1-0.1,0.2-0.1,0.3C94,66,94,66,93.9,66c-0.4,0-1.1-0.5-2.1-1.8c-1.1-1.5-1.3-3.8-1.3-3.8       c0-0.4-0.3-0.7-0.7-0.7c-0.4,0-0.7,0.2-0.8,0.6c-0.4,2.4,0.7,6.3,3.3,8.6c2.4,2.1,4.8,2.8,6.3,2.9c0.2,0,0.4-0.1,0.6-0.2       c0.1-0.1,0.2-0.3,0.2-0.5V71l-0.1-0.6c0-0.3-0.3-0.6-0.6-0.6c0,0-1.6-0.4-2.5-1.1c-0.3-0.3-0.5-0.4-0.5-0.7       c0-0.1,0.1-0.3,0.2-0.6c0.1-0.1,0.2-0.1,0.3-0.2c1.6,1.5,3.5,2.6,5.6,3.1l0,0c0.1,0,0.2,0,0.4,0l0,0c2-0.5,3.8-1.5,5.3-2.8       c0.1,0,0.1,0,0.2,0c0,0,0.2,0,0.3,0c0.3,0.4,1.5,2.2,1.5,2.2c0.1,0.2,0.4,0.3,0.6,0.3c0.4,0.4,1.6,1.9,1.6,1.9       c0.2,0.3,0.7,0.3,1,0.1c0.2-0.1,0.3-0.4,0.3-0.6c0-0.1,0-0.2-0.1-0.3c0,0-0.9-1.7-1.2-2.2c0-0.1,0.1-0.2,0.1-0.3       c0-0.1,0-0.3-0.1-0.4c0,0-0.6-0.9-1-1.5c0.7-0.8,1.7-2.8,2.1-8.3c0.3-1.1,0.6-2.3,0.8-3.5c1,1.2,2.1,2.9,2.2,4.6v0.1       c0.1,0.4,0.4,0.8,0.9,0.8c0.3,0,0.6-0.2,0.8-0.5c0.6-1,0.9-1.9,0.9-3.2c0-0.3,0-0.6-0.1-1c0.4,0.3,0.5,0.6,0.7,0.9       c0.1,0.3,0.5,0.5,0.8,0.5c0.5,0,0.9-0.4,0.9-0.9c0-1.1-0.4-2.2-1-3.3c0.6-0.6,2.7-2.7,2.7-2.7C123,49.8,123.2,49.4,123.2,48.9z       "></path>
				</g>
				<path style="fill:#C31622;" d="M112.8,46.8c-0.4-0.2-0.8-0.4-1.3-0.5c0.3,1.9,0.6,4.3,0.8,6.2C112.6,50.7,112.7,48.8,112.8,46.8      z"></path>
				<path style="fill:#C31622;" d="M108.8,45.3c-0.4-0.1-0.8-0.2-1.2-0.3c-1.3,1.5-3.2,2.4-5.4,2.4c-2.1,0-4-0.9-5.4-2.4      c-1.5,0.3-2.9,0.8-4.2,1.3c0,0,0,0,0,0.1h3.9l-3.8,0.5c0,0.1,0,0.1,0,0.2l6.5,4.5l-6.7-4.1l-0.1,0.1l1.4,4.7l-2-4.5h-0.1      c0.5,11.6,4.2,18.8,10.5,20.5c3-0.8,5.4-2.9,7.2-6.1c0.5-2.1,0.7-4.5,0.7-7.3C110.1,50.5,109.6,46.9,108.8,45.3z M108.9,58.1      c-1.3,0.2-2.8,0.3-4.4,0.4v4.4c-0.7,0-1.5,0-2.2,0c-0.8,0-1.5,0-2.2,0v-4.4c-1.6-0.1-3.1-0.2-4.4-0.4v-4.4      c1.3,0.2,2.8,0.3,4.4,0.4v-4.4c0.7,0,1.5,0,2.2,0c0.8,0,1.5,0,2.2,0v4.4c1.6-0.1,3.1-0.2,4.4-0.4V58.1z"></path>
				<g>
					<path d="M115.2,41c-0.8,0.7,0.4,1.4,0,1.8c-0.2,0.1-0.4,0-0.5-0.2c-0.2-0.2-0.3-0.5-0.4-0.7l-0.5,0.4c0.1,0.2,0.3,0.5,0.5,0.7       c0.4,0.5,1,0.8,1.5,0.3c0.7-0.7-0.4-1.5,0-1.8c0.2-0.2,0.4,0.1,0.5,0.2c0.1,0.2,0.3,0.3,0.3,0.5l0.5-0.3       c-0.1-0.2-0.2-0.4-0.4-0.6C116.2,40.9,115.7,40.6,115.2,41z"></path>
					<path d="M121.7,47.4c-1-1-2.3-2-3.7-2.8l0.7-0.7c0.4-0.4,0.3-1.2-0.2-1.8c-1-1.4-2.2-2.6-3.6-3.7l1.7-2.6l-0.1-0.3l1.3-2.6       l-1.9,2.2h-0.3l-1.7,2.5c-2.1-1.5-4.5-2.6-7.1-3.2c-0.6-0.5-1.4-0.9-2.2-1.2c-0.1-0.4-0.3-0.9-0.4-1.3c0.2-0.4,0.4-0.6,0.6-0.9       c0.3-0.3,0.6-0.6,0.8-1.2c0.1-0.4,0.2-0.8,0.2-1.1c0-0.6-0.2-1.1-0.6-1.4l-0.1-0.1l-0.1,0.2c-0.6,1.1-1.2,1.9-2,2.4       c-0.3,0.2-0.5,0.1-0.9-0.2c-0.2-0.1-0.4-0.2-0.6-0.3c-0.2-1.5-0.1-3.5,0.4-4.4c0.5-1,1.4-0.9,1.9,0l0,0l0.1,0.1       c0.1,0,0.1-0.1,0.1-0.1l0,0l0,0l0,0l0,0c-0.1-0.2-0.6-1.5-1.9-0.9c-0.3,0.2-0.7,0.5-0.9,0.9c-0.7-1.1-1.4-1.2-1.8-0.6       s-0.3,2.2,0.3,4.7c-0.7-0.5-1-1.1-1.2-1.5c-0.6,0.6-0.5,2,0.6,2.7c-0.2,0.1-0.3,0.2-0.3,0.2c-0.4,0.3-0.7,0.6-0.8,1.2       c-0.1,0.1-2.7,1.6-2.7,1.6c-0.3,0.2-0.4,0.5-0.5,0.9c0,0.1,0,0.1,0,0.2c0,0.3,0.1,0.6,0.2,0.8v0.1l0,0       c-1.6,0.6-3.2,1.4-4.6,2.4l-0.3-0.4c-0.7-1.1-1.2-2.2-1.6-3.3c-0.4-0.1-0.8,0-1.2,0.3c-0.4,0.2-0.6,0.6-0.7,1       c0.9,0.8,1.8,1.7,2.5,2.7l0.3,0.4c-1.3,1.1-2.5,2.3-3.6,3.7c-0.5,0.7-0.6,1.4-0.2,1.8l0.7,0.7c-1.5,0.8-2.7,1.8-3.7,2.8       c-0.7,0.7-1,1.7-0.5,2.2l3.1,3.1c-0.7,1.2-1.1,2.4-1.1,3.5c0,0.1,0.1,0.2,0.2,0.2s0.1,0,0.2-0.1c0.3-0.7,0.6-1.1,2.3-2.1       c-0.2,1-0.3,1.8-0.3,2.5c0,1.1,0.2,1.9,0.8,2.8c0,0.1,0.1,0.1,0.1,0.1c0.1,0,0.2-0.1,0.2-0.2c0-2.5,2.1-4.9,3.3-6.1       c0,0,0,0,0-0.1c0.5,3.6,1.5,6.7,2.8,9.2c0.5,0.9,1,1.8,1.6,2.5L94.8,66l0.1,0.1c-0.9,1.3-2.3,0.2-3.6-1.6       c-1.2-1.7-1.4-4.2-1.4-4.2c-0.3,2.1,0.7,5.8,3,7.9c1.9,1.8,4,2.6,5.9,2.8l-0.1-0.6c0,0-1.7-0.4-2.8-1.3c-1-0.8-1.1-1.3-0.3-2.5       h0.1l0.5-0.7c1.6,1.8,3.6,3,5.9,3.5l0,0l0,0c2-0.5,3.8-1.5,5.3-2.9c0.1,0,0.3,0.1,0.4,0.1s0.2,0,0.3,0c0.1,0,0.2,0,0.3,0       c0,0,0,0,0.1,0l1.7,2.5h0.3l1.9,2.2l-1.3-2.6l0.1-0.3l-1.4-2c1.6-1,2.1-5.1,2.3-8.3c0.4-1.5,0.8-3.2,1.1-5l0.1,0.1       c1.2,1.2,3.3,3.7,3.3,6.2c0,0.1,0.1,0.1,0.2,0.1s0.1,0,0.1-0.1c0.5-0.9,0.8-1.7,0.8-2.8c0-0.7-0.1-1.5-0.3-2.5       c1.6,0.9,1.9,1.4,2.3,2.1c0,0.1,0.1,0.1,0.2,0.1s0.2-0.1,0.2-0.2c0-1.1-0.4-2.3-1.1-3.5l3.1-3.1       C122.6,49.1,122.4,48.2,121.7,47.4z M107.5,34.9c4.3,1.2,8.1,3.7,10.7,7.3c0.4,0.6,0.5,1.2,0.2,1.4l0,0c0-0.1,0-0.1,0-0.2       c0-0.4-0.2-0.7-0.4-1l0,0l0,0l0,0c0.2,0.4,0.4,1.1,0.1,1.4l-0.1,0.1c0-0.1,0-0.1,0-0.2c0-0.4-0.2-0.7-0.4-1l0,0l0,0l0,0       c0.2,0.4,0.4,1.1,0.1,1.4l-0.1,0.1c0-0.1,0-0.1,0-0.2c0-0.4-0.2-0.7-0.4-1l0,0l0,0l0,0c0.2,0.4,0.4,1.1,0.1,1.4l-0.1,0.1       c0-0.1,0-0.1,0-0.2c0-0.4-0.2-0.7-0.4-1l0,0l0,0l0,0c0.2,0.4,0.4,1.1,0.1,1.4l-0.1,0.1c0-0.1,0-0.1,0-0.2c0-0.4-0.2-0.7-0.4-1       l0,0l0,0l0,0c0.2,0.4,0.4,1.1,0.1,1.4l-0.1,0.1c0-0.1,0-0.1,0-0.2c0-0.4-0.2-0.7-0.4-1l0,0l0,0l0,0c0.2,0.4,0.4,1.1,0.1,1.4       l-0.1,0.1c0-0.1,0-0.1,0-0.2c0-0.4-0.2-0.7-0.4-1l0,0l0,0l0,0c0.2,0.4,0.4,1.1,0.1,1.4l-0.1,0.1c0-0.1,0-0.1,0-0.2       c0-0.4-0.2-0.7-0.4-1l0,0l0,0l0,0c0.2,0.4,0.4,1.1,0.1,1.4l0,0c0-0.3-0.1-0.7-0.3-1c-1.5-2.2-3.4-4-5.7-5.2l0,0       c0-0.3,0-0.6-0.1-0.9c0.2,0.2,0.4,0.4,0.7,0.6c0.3,0.2,0.6,0.2,0.8,0.3l0.2-0.5c-0.2,0-0.5-0.1-0.7-0.2       c-0.5-0.3-0.7-0.7-0.4-1.2c0.2-0.5,0.7-0.6,1.2-0.4c0.2,0.1,0.4,0.3,0.6,0.5l0.3-0.5c-0.2-0.2-0.4-0.4-0.7-0.5       c-0.8-0.4-1.6-0.3-2.1,0.5c-0.1,0.1-0.1,0.2-0.1,0.4c-0.4-1.3-1.1-2.4-2-3.3L107.5,34.9z M113.2,45.5l0.8,0.4       c0.5,0.3,1,0.6,1.4,0.6v0.1c-0.5,0.2-0.9,0-1.5-0.3v-0.1v-0.1h-0.1c-0.8-0.4-1.6-0.7-2.5-1l1.8-1.8c0.6,0.6,1.2,1.3,1.7,2l0,0       c-0.3-0.2-0.6-0.3-0.9-0.4l0,0l0,0l0,0l0,0l0.8,0.4l0.4,0.2c0,0,0,0.1,0.1,0.1c0.1,0.1,0.1,0.2,0.2,0.4       c-0.3-0.1-0.5-0.2-0.8-0.4s-0.6-0.3-0.9-0.4l0,0l0,0l0,0l0,0l0.8,0.4c0.4,0.2,0.7,0.4,1,0.5c0,0.1,0,0.2,0,0.2       c-0.4,0-0.8-0.2-1.3-0.5C113.9,45.7,113.6,45.5,113.2,45.5L113.2,45.5C113.3,45.4,113.3,45.4,113.2,45.5       C113.2,45.4,113.2,45.4,113.2,45.5C113.2,45.4,113.2,45.5,113.2,45.5z M115.3,46.8L115.3,46.8c-0.3,0.3-0.8,0.3-1.3,0       c0,0-0.1,0-0.1-0.1s0-0.2,0-0.3C114.4,46.7,114.8,46.9,115.3,46.8z M117.7,50.5c0.3,0.3,0.7,0.6,1,0.8c0.1,0.1,0.1,0.3,0.2,0.4       c-0.5-0.1-0.9-0.5-1.5-0.9l0,0l0,0c0.5,0.4,1,0.9,1.6,1c0,0.1,0,0.1,0,0.2c-0.6,0.1-1.1-0.3-1.9-0.9l0,0l0,0       c0.6,0.5,1.2,1.1,1.9,1.1v0.1c-0.7,0.3-1.3-0.1-2.2-0.8l0,0l0,0c0.6,0.6,1.3,1.2,2.1,1c-0.7,0.6-1.6-0.1-1.9-0.5       c-0.5-0.5-1.1-0.9-1.8-1.3c-0.4-0.3-0.8-0.4-1.2-0.3l1.8-1.8c1.1,0.6,2,1.3,2.8,2.1c0.1,0.1,0.2,0.2,0.2,0.3       C118.3,50.9,118.1,50.7,117.7,50.5C117.7,50.4,117.7,50.4,117.7,50.5L117.7,50.5z M113.7,50.1c0.1-0.7,0.1-1.5,0.1-2.2       c0.5,0.2,1,0.4,1.4,0.7L113.7,50.1z M111.9,53.5c-0.1,0-0.1,0-0.2-0.1c0-0.2,0-0.3,0-0.5l0,0c0.1,0,0.3,0.1,0.3,0.2l0,0       c0,0.1,0,0.3,0,0.4C112,53.5,111.9,53.5,111.9,53.5z M112.1,53.9L112.1,53.9c0,0.1,0,0.3,0,0.4c-0.1,0-0.1-0.1-0.2-0.1       s-0.1,0-0.2-0.1c0-0.2,0-0.3,0-0.5l0,0C111.9,53.8,112.1,53.9,112.1,53.9z M111.9,52.7c-0.1,0-0.1,0-0.2-0.1c0-0.2,0-0.3,0-0.5       l0,0c0.1,0,0.3,0.1,0.3,0.2l0,0c0,0.1,0,0.3,0,0.4C112,52.7,111.9,52.7,111.9,52.7z M111.8,51.9c-0.1,0-0.1,0-0.2-0.1       c0-0.2,0-0.3,0-0.5l0,0c0.1,0,0.3,0.1,0.3,0.2l0,0c0,0.1,0,0.3,0,0.4C111.9,51.9,111.9,51.9,111.8,51.9z M111.8,51.1       c-0.1,0-0.1,0-0.2-0.1c0-0.2,0-0.3,0-0.5l0,0c0.1,0,0.3,0.1,0.3,0.2l0,0c0,0.1,0,0.3,0,0.4C111.9,51.1,111.8,51.1,111.8,51.1z        M111.7,50.3c-0.1,0-0.1,0-0.2,0c0-0.2,0-0.3,0-0.5l0,0c0.1,0,0.3,0.1,0.3,0.1l0,0c0,0.1,0,0.3,0,0.4       C111.8,50.3,111.8,50.3,111.7,50.3z M111.6,49.5c-0.1,0-0.1,0-0.2,0c0-0.2,0-0.3-0.1-0.5l0,0c0.1,0,0.3,0.1,0.3,0.1l0,0       c0,0.1,0,0.3,0.1,0.4C111.7,49.5,111.7,49.5,111.6,49.5z M109.6,63.9c-0.1-0.1-0.3-0.2-0.2-0.3l0,0c0-0.1,0.1-0.3,0.1-0.4       c0.1,0,0.1,0.1,0.2,0.1c0.1,0.1,0.3,0.2,0.3,0.2c0,0.1-0.1,0.3-0.1,0.4C109.7,64,109.7,63.9,109.6,63.9z M109.7,64.4       c-0.1,0.2-0.1,0.3-0.2,0.4c-0.1-0.1-0.1-0.1-0.2-0.1c-0.1-0.1-0.2-0.2-0.2-0.3c0-0.1,0.1-0.3,0.1-0.4c0.1,0.1,0.1,0.1,0.2,0.1       C109.5,64.2,109.7,64.3,109.7,64.4z M109.8,63.1c-0.1-0.1-0.3-0.2-0.3-0.2c0-0.1,0.1-0.3,0.1-0.4c0.1,0,0.1,0.1,0.2,0.1       c0.1,0.1,0.3,0.2,0.3,0.2c0,0.2-0.1,0.3-0.1,0.4C109.9,63.2,109.9,63.1,109.8,63.1z M101.7,47.1H101l1.9-3.2h0.7L101.7,47.1z        M103.4,47.1h-0.6l-0.3-0.6l0.3-0.6L103.4,47.1z M87.8,51.5L87.8,51.5c-1,0.7-1.6,1.2-2.3,0.8v-0.1c0.7,0.1,1.4-0.5,1.9-1.1       l0,0l0,0c-0.8,0.6-1.3,1-1.9,0.9c0-0.1,0-0.1,0-0.2c0.6-0.1,1.1-0.6,1.6-1l0,0l0,0c-0.6,0.5-1.1,0.8-1.5,0.9       c0-0.1,0.1-0.3,0.2-0.4c0.4-0.2,0.7-0.5,1-0.8l0,0l0,0c-0.3,0.3-0.6,0.5-0.8,0.6c0.1-0.1,0.2-0.2,0.2-0.3       c0.7-0.7,1.7-1.4,2.8-2.1l1.8,1.8c-0.4,0-0.8,0.1-1.2,0.3c-0.7,0.4-1.3,0.8-1.8,1.3c-0.4,0.3-1.3,1-1.9,0.5       C86.5,52.8,87.2,52.1,87.8,51.5L87.8,51.5z M89.2,48.5c0.4-0.2,0.9-0.5,1.4-0.7c0,0.8,0.1,1.5,0.1,2.3L89.2,48.5z M90.6,46       L90.6,46L90.6,46l-0.1,0.2c-0.5,0.3-1,0.5-1.5,0.3v-0.1c0.5,0,0.9-0.3,1.4-0.6l0.8-0.4l0,0l0,0l0,0l0,0       c-0.3,0.1-0.6,0.3-0.9,0.4c-0.5,0.3-0.9,0.5-1.3,0.5c0-0.1,0-0.2,0-0.2c0.3-0.1,0.7-0.3,1-0.5l0.8-0.4l0,0l0,0l0,0l0,0       c-0.3,0.1-0.6,0.3-0.9,0.4c-0.3,0.2-0.6,0.3-0.8,0.4c0-0.1,0.1-0.2,0.2-0.4c0,0,0-0.1,0.1-0.1l0.4-0.2l0.8-0.4l0,0l0,0l0,0l0,0       c-0.3,0.1-0.6,0.3-0.9,0.4l0,0c0.5-0.7,1.1-1.4,1.7-2l1.8,1.8C92.3,45.3,91.4,45.6,90.6,46z M90.6,46.7L90.6,46.7       c-0.6,0.4-1.1,0.4-1.3,0.2l0,0c0.5,0.1,0.9-0.1,1.4-0.4C90.6,46.5,90.6,46.6,90.6,46.7z M91.5,42.9c0.2-0.2,0.5-0.4,0.7-0.6       l1.6,2.4c-0.1,0-0.3,0.1-0.4,0.1L91.5,42.9z M93.2,41.5c0.5-0.4,1.1-0.7,1.6-1l0,0c0.1,1.3,0.5,2.6,1.1,3.6       c-0.3,0.1-0.6,0.1-0.9,0.2L93.2,41.5z M99.3,37c0,0.2,0,0.5-0.1,0.8c-0.1,0.1-0.2,0.2-0.3,0.4l-0.1,0.1c0-0.1-0.1-0.1-0.1-0.2       l0.1-0.1h-0.2c-0.1,0.1-0.2,0.2-0.3,0.2c-0.1,0-0.1,0.1-0.2,0.1c0-0.2,0-0.3,0-0.5c0,0,0-0.1,0.1-0.1c0.4-0.2,0.7-0.4,0.9-0.7       C99.1,37.1,99.2,37,99.3,37z M99.3,36.7L99.3,36.7C99.3,36.6,99.3,36.6,99.3,36.7C99.4,36.6,99.4,36.7,99.3,36.7L99.3,36.7z        M98.1,42.8c0.2,0.2,0.4,0.5,0.5,0.8c-0.2,0-0.5,0.1-0.7,0.2c-0.1-0.1-0.3-0.2-0.4-0.3c-0.3-0.3-0.5-0.8-0.6-1.2       C97.3,42.3,97.8,42.5,98.1,42.8z M96.7,41.5c-0.1-0.1-0.2-0.3-0.2-0.4c-0.1-0.3-0.1-0.6-0.1-0.9c0-0.2,0.1-0.3,0.1-0.5       c0.4,0.2,0.7,0.6,0.8,1c0.1,0.3,0.1,0.6,0.1,0.9l0,0C97.2,41.6,97,41.6,96.7,41.5z M99.6,44.3c0.4,0.2,0.8,0.5,1,0.9       c-0.4,0.1-0.9,0.1-1.4,0c-0.4-0.2-0.8-0.5-1-0.9C98.7,44.2,99.2,44.2,99.6,44.3z M99.5,43.7c-0.1,0-0.2-0.1-0.4-0.1       c-0.2-0.3-0.3-0.7-0.3-1c0.5,0.1,0.9,0.3,1.2,0.7c0.3,0.3,0.5,0.8,0.5,1.2C100.3,44.1,99.9,43.9,99.5,43.7z M98.6,41.9h-0.2       v0.2c0,0.1,0,0.3,0,0.4c0,0,0,0,0,0.1c-0.1-0.1-0.1-0.2-0.2-0.3S98,42.1,97.8,42c0-0.2-0.1-0.4,0-0.5c0,0,0,0,0-0.1       s0-0.1,0-0.2c0-0.2,0.1-0.3,0.2-0.5C98.4,41,98.6,41.4,98.6,41.9L98.6,41.9C98.8,41.9,98.7,41.9,98.6,41.9z M98.6,36.9       c-0.2,0.3-0.4,0.5-0.6,0.6c-0.1-0.2-0.2-0.5-0.4-0.7c0-0.1,0.1-0.3,0.2-0.4l0,0c0.3,0.1,0.6,0.1,0.9,0.2       C98.7,36.6,98.7,36.7,98.6,36.9z M98,39c0.1-0.1,0.2-0.2,0.3-0.3c0.2,0.4,0.2,0.8,0.2,1.2c0,0.1,0,0.1,0,0.2v0.1       c-0.1,0-0.1-0.1-0.2-0.1L98.2,40H98c-0.1,0.1-0.1,0.2-0.2,0.4c0,0,0,0.1-0.1,0.1v-0.1c-0.1-0.2-0.1-0.3-0.2-0.5       c0-0.1,0-0.1,0-0.2l0,0C97.8,39.5,97.9,39.2,98,39z M97.5,38.7L97.5,38.7c0,0.3-0.1,0.6-0.3,0.8c-0.2-0.2-0.4-0.3-0.6-0.5       c0-0.2,0-0.3,0-0.5l0,0c0.1-0.5,0.3-0.9,0.6-1.2C97.5,37.8,97.6,38.2,97.5,38.7z M96.5,37.9c-0.1-0.1-0.2-0.3-0.3-0.4       c0-0.1,0-0.3,0-0.4l0,0c0-0.4,0.2-0.7,0.4-1c0.1,0,0.2,0,0.3,0.1c0.2,0.3,0.2,0.6,0.2,1C96.8,37.3,96.6,37.6,96.5,37.9z        M96.3,38.8c0,0.1,0,0.3,0,0.4c0,0.1-0.1,0.2-0.1,0.3c-0.1,0.1-0.1,0.3-0.1,0.4c-0.1-0.1-0.3-0.2-0.5-0.3       c-0.1-0.1-0.1-0.3-0.2-0.4c-0.1-0.2-0.1-0.5-0.1-0.7s0.1-0.5,0.2-0.7C95.9,38.1,96.2,38.5,96.3,38.8z M96.1,40.7       c0,0.2,0.1,0.3,0.1,0.5c0.1,0.2,0.2,0.4,0.3,0.6c0,0.1,0,0.1,0,0.2c-0.2-0.1-0.4-0.2-0.7-0.2c-0.1-0.1-0.2-0.2-0.3-0.3       c-0.3-0.4-0.4-0.8-0.4-1.3l0,0C95.5,40.3,95.8,40.4,96.1,40.7z M95.6,42.5c0.4,0,0.7,0.1,1.1,0.3c0.1,0.4,0.3,0.7,0.6,1       l0.1,0.1c-0.2,0-0.4,0-0.6,0.1c-0.1-0.1-0.3-0.1-0.4-0.2C96,43.3,95.7,42.9,95.6,42.5z M97.9,44.4c0.2,0.3,0.4,0.6,0.7,0.8       c-0.2,0.1-0.3,0.1-0.4,0.2c-0.1,0-0.3,0-0.4-0.1c-0.4-0.1-0.8-0.4-1.1-0.8C97.1,44.4,97.5,44.3,97.9,44.4z M99.6,45.6       c0.2,0,0.3,0,0.5,0c0.3,0.1,0.6,0.2,0.9,0.4c-0.4,0.3-0.8,0.5-1.3,0.5s-0.9-0.2-1.3-0.4C98.7,45.8,99.2,45.6,99.6,45.6z        M100.9,43.9h0.7l0.5,0.8l-0.3,0.6L100.9,43.9z M104.4,45.6c0.2,0,0.3,0,0.5,0c0.4,0,0.8,0.2,1.2,0.5c-0.4,0.3-0.8,0.4-1.3,0.4       s-0.9-0.2-1.3-0.5C103.8,45.8,104.1,45.7,104.4,45.6z M111.2,53.5c-0.1,0-0.1,0-0.2-0.1c0-0.2,0-0.3,0-0.5l0,0       c0.1,0,0.3,0.1,0.3,0.2l0,0c0,0.1,0,0.3,0,0.4C111.4,53.5,111.3,53.5,111.2,53.5z M111.4,53.9L111.4,53.9c0,0.1,0,0.3,0,0.4       c-0.1,0-0.1-0.1-0.2-0.1s-0.1,0-0.2-0.1c0-0.2,0-0.3,0-0.5l0,0C111.3,53.8,111.4,53.9,111.4,53.9z M111.2,52.7       c-0.1,0-0.1,0-0.2-0.1c0-0.2,0-0.3,0-0.5l0,0c0.1,0,0.3,0.1,0.3,0.2l0,0c0,0.1,0,0.3,0,0.4C111.3,52.7,111.3,52.7,111.2,52.7z        M111.2,51.9c-0.1,0-0.1,0-0.2-0.1c0-0.2,0-0.3,0-0.5l0,0c0.1,0,0.3,0.1,0.3,0.2l0,0c0,0.1,0,0.3,0,0.4       C111.3,51.9,111.2,51.9,111.2,51.9z M111.1,51.1c-0.1,0-0.1,0-0.2-0.1c0-0.2,0-0.3,0-0.5l0,0c0.1,0,0.3,0.1,0.3,0.2l0,0       c0,0.1,0,0.3,0,0.4C111.2,51.1,111.2,51.1,111.1,51.1z M111,50.3c-0.1,0-0.1,0-0.2,0c0-0.2,0-0.3,0-0.5l0,0       c0.1,0,0.3,0.1,0.3,0.1l0,0c0,0.1,0,0.3,0,0.4C111.2,50.3,111.1,50.3,111,50.3z M110.9,49.5c-0.1,0-0.1,0-0.2,0       c0-0.2,0-0.3-0.1-0.5l0,0c0.1,0,0.3,0.1,0.3,0.1l0,0c0,0.1,0,0.3,0.1,0.4C111.1,49.5,111,49.5,110.9,49.5z M110.6,53.5       c-0.1-0.1-0.3-0.1-0.3-0.2l0,0c0-0.1,0-0.3,0-0.4c0.1,0,0.1,0.1,0.2,0.1s0.3,0.1,0.3,0.2l0,0c0,0.1,0,0.3,0,0.4       C110.7,53.5,110.6,53.5,110.6,53.5z M110.8,53.9L110.8,53.9c0,0.1,0,0.3,0,0.4c-0.1,0-0.1-0.1-0.2-0.1       c-0.1-0.1-0.3-0.1-0.3-0.2c0-0.1,0-0.3,0-0.4c0.1,0,0.1,0.1,0.2,0.1C110.6,53.8,110.8,53.9,110.8,53.9z M110.5,52.7       c-0.1,0-0.3-0.1-0.3-0.2l0,0c0-0.1,0-0.3,0-0.4c0.1,0,0.1,0.1,0.2,0.1s0.3,0.1,0.3,0.2l0,0c0,0.1,0,0.3,0,0.4       C110.7,52.7,110.6,52.7,110.5,52.7z M110.5,51.9c-0.1,0-0.3-0.1-0.3-0.2l0,0c0-0.1,0-0.3,0-0.4c0.1,0,0.1,0.1,0.2,0.1       s0.3,0.1,0.3,0.2l0,0c0,0.1,0,0.3,0,0.4C110.6,51.9,110.6,51.9,110.5,51.9z M110.4,51.1c-0.1,0-0.3-0.1-0.3-0.2l0,0       c0-0.1,0-0.3,0-0.4c0.1,0,0.1,0,0.2,0.1c0.1,0,0.3,0.1,0.3,0.2l0,0c0,0.1,0,0.3,0,0.4C110.6,51.1,110.5,51.1,110.4,51.1z        M110.1,59.3c0.1,0,0.1,0.1,0.2,0.1c0.1,0.1,0.3,0.1,0.3,0.2l0,0c0,0.1,0,0.3,0,0.4c-0.1,0-0.1-0.1-0.2-0.1       c-0.1-0.1-0.3-0.1-0.3-0.2C110.1,59.5,110.1,59.4,110.1,59.3z M110.4,59.1c-0.1-0.1-0.3-0.1-0.3-0.2c0-0.1,0-0.3,0-0.4       c0.1,0,0.1,0.1,0.2,0.1c0.2,0.1,0.3,0.1,0.3,0.2l0,0c0,0.1,0,0.3,0,0.4C110.5,59.2,110.5,59.1,110.4,59.1z M110.5,58.3       c-0.1-0.1-0.3-0.1-0.3-0.2l0,0c0-0.1,0-0.3,0-0.4c0.1,0,0.1,0.1,0.2,0.1c0.2,0.1,0.3,0.1,0.3,0.2l0,0c0,0.1,0,0.3,0,0.4       C110.6,58.3,110.5,58.3,110.5,58.3z M110.5,57.5c-0.2-0.1-0.3-0.1-0.3-0.2l0,0c0-0.1,0-0.3,0-0.4c0.1,0,0.1,0.1,0.2,0.1       c0.1,0.1,0.3,0.1,0.3,0.2l0,0c0,0.1,0,0.3,0,0.4C110.6,57.5,110.6,57.5,110.5,57.5z M110.6,56.7c-0.1-0.1-0.3-0.1-0.3-0.2       c0-0.1,0-0.3,0-0.4c0.1,0,0.1,0.1,0.2,0.1c0.2,0.1,0.3,0.1,0.3,0.2l0,0c0,0.1,0,0.3,0,0.4C110.7,56.7,110.6,56.7,110.6,56.7z        M110.6,55.9c-0.1-0.1-0.3-0.1-0.3-0.2l0,0c0-0.1,0-0.3,0-0.4c0.1,0,0.1,0.1,0.2,0.1c0.1,0.1,0.3,0.1,0.3,0.2l0,0       c0,0.1,0,0.3,0,0.4C110.7,55.9,110.6,55.9,110.6,55.9z M110.6,55.1c-0.1-0.1-0.3-0.1-0.3-0.2l0,0c0-0.1,0-0.3,0-0.4       c0.1,0,0.1,0.1,0.2,0.1c0.1,0.1,0.3,0.1,0.3,0.2l0,0c0,0.1,0,0.1,0,0.2c0,0.1,0,0.2,0,0.2C110.7,55.1,110.7,55.1,110.6,55.1z        M110.8,48.6L110.8,48.6c-0.1-0.1-0.1-0.3-0.2-0.4l0,0c0.1,0,0.3,0.1,0.3,0.1l0,0c0,0.1,0,0.3,0.1,0.4       C111,48.7,110.9,48.7,110.8,48.6z M110.7,47.9L110.7,47.9c-0.1-0.1-0.2-0.3-0.2-0.4l0,0c0.1,0,0.3,0,0.3,0.1s0,0.3,0.1,0.4       C110.9,47.9,110.8,47.9,110.7,47.9z M110.6,47.1L110.6,47.1c-0.1-0.2-0.2-0.3-0.2-0.5l0,0c0.1,0,0.3,0.1,0.4,0.1       c0,0.1,0.1,0.3,0.1,0.4C110.7,47.2,110.6,47.1,110.6,47.1z M109.6,44.1c-0.1,0-0.1,0-0.2,0.1l0,0c-0.1-0.1-0.1-0.2-0.2-0.3       c0-0.1,0.1-0.1,0.1-0.1C109.4,43.8,109.5,43.9,109.6,44.1z M109.5,43.5L109.5,43.5L109.5,43.5L109.5,43.5       C109.6,43.6,109.5,43.6,109.5,43.5z M109.8,44.4c0.1,0.1,0.2,0.3,0.2,0.4c-0.1,0-0.1,0-0.2,0h-0.1c-0.1-0.1-0.1-0.2-0.2-0.4       C109.7,44.4,109.8,44.3,109.8,44.4z M109.8,43.9C109.8,43.8,109.9,43.8,109.8,43.9c0.2,0,0.3,0.1,0.5,0.2c-0.1,0-0.1,0-0.2,0.1       l0,0C109.9,44,109.9,43.9,109.8,43.9z M110.2,45.2c0.1,0.1,0.1,0.3,0.2,0.5c-0.1,0-0.1,0-0.2,0c0,0-0.1,0-0.2,0       c-0.1-0.2-0.1-0.3-0.2-0.5C110,45.1,110.2,45.1,110.2,45.2z M110.1,45.9c0.1,0,0.3,0.1,0.4,0.1c0,0.1,0.1,0.3,0.1,0.4       c-0.1,0-0.1,0-0.2,0h-0.1C110.2,46.2,110.2,46,110.1,45.9L110.1,45.9z M110.7,45.6c-0.1-0.2-0.1-0.3-0.2-0.5       c0.1,0,0.3,0,0.4,0.1s0.1,0.3,0.2,0.5c-0.1,0-0.1,0-0.2,0C110.8,45.6,110.7,45.6,110.7,45.6z M110.5,44.8L110.5,44.8       c-0.2-0.1-0.2-0.2-0.3-0.4c0.1-0.1,0.2-0.1,0.3-0.1c0.1,0.1,0.2,0.3,0.2,0.4C110.6,44.8,110.6,44.8,110.5,44.8z M110,43.4       c-0.2-0.1-0.5-0.2-0.7-0.2h-0.1c-0.1,0-0.1,0-0.2,0c0.4-0.8,0.6-1.8,0.7-2.8l0,0c0.6,0.3,1.1,0.6,1.6,1L110,43.4z M108.9,41.5       c-0.1,0.1-0.2,0.2-0.3,0.3c-0.2,0-0.5,0.1-0.7,0.2c0-0.1,0-0.1,0-0.2c0.1-0.2,0.2-0.4,0.3-0.6c0.1-0.2,0.1-0.3,0.1-0.5       c0.2-0.3,0.5-0.4,0.9-0.5l0,0C109.3,40.6,109.2,41.1,108.9,41.5z M109,43.6C109,43.6,108.9,43.6,109,43.6L109,43.6       C108.9,43.6,108.9,43.6,109,43.6C108.9,43.6,108.9,43.6,109,43.6C108.9,43.6,109,43.6,109,43.6z M109,39.2       c0,0.1-0.1,0.3-0.2,0.4c-0.2,0.1-0.3,0.2-0.5,0.3c0-0.1-0.1-0.3-0.1-0.4c0-0.1-0.1-0.2-0.1-0.3s0-0.3,0-0.4       c0.1-0.4,0.4-0.7,0.7-1c0.1,0.2,0.2,0.4,0.2,0.7C109.1,38.8,109,39,109,39.2z M108.3,37.5c-0.1,0.1-0.2,0.2-0.3,0.4       c-0.1-0.3-0.3-0.6-0.6-0.8c0-0.4,0.1-0.9,0.4-1.2c0.3,0.3,0.5,0.8,0.5,1.2l0,0C108.3,37.2,108.3,37.4,108.3,37.5z M108.1,40.2       c0,0.3,0,0.6-0.1,0.9c-0.1,0.2-0.1,0.3-0.2,0.4c-0.3,0-0.5,0.1-0.7,0.2l0,0c0-0.3,0-0.6,0.1-0.9c0.2-0.4,0.4-0.8,0.8-1       C108,39.9,108.1,40.1,108.1,40.2z M107.6,42.2c0,0.5-0.2,0.9-0.6,1.2c-0.1,0.1-0.2,0.2-0.4,0.3c-0.2-0.1-0.5-0.1-0.7-0.2       c0.1-0.3,0.2-0.5,0.5-0.8C106.7,42.5,107.1,42.3,107.6,42.2z M106.7,40.4L106.7,40.4C106.6,40.5,106.6,40.4,106.7,40.4       c-0.1-0.1-0.2-0.2-0.3-0.4l-0.1-0.1l-0.1,0.1c-0.1,0-0.1,0.1-0.2,0.1V40c0-0.1,0-0.1,0-0.2c-0.1-0.4,0-0.8,0.2-1.2       c0.1,0.1,0.2,0.2,0.3,0.3c0.1,0.3,0.2,0.5,0.4,0.7l0,0c0,0.1,0,0.1,0,0.2C106.8,40.1,106.8,40.2,106.7,40.4z M106.4,40.7       c0.1,0.2,0.2,0.3,0.2,0.5c0,0.1,0,0.1,0,0.2c0,0,0,0,0,0.1c0,0.2,0,0.4,0,0.5c-0.1,0.1-0.2,0.2-0.4,0.3       c-0.1,0.1-0.2,0.2-0.2,0.3c0,0,0,0,0-0.1s0-0.3,0-0.4v-0.2h-0.2c-0.1,0-0.1,0-0.2,0v-0.1C105.8,41.4,106,41,106.4,40.7z        M105.6,42.6c0,0.4-0.1,0.7-0.3,1c-0.1,0-0.2,0.1-0.4,0.1c-0.4,0.1-0.7,0.4-1,0.7c0-0.5,0.2-0.9,0.5-1.2       C104.8,42.9,105.2,42.7,105.6,42.6z M104.9,44.3c0.4-0.2,0.9-0.2,1.4,0c-0.2,0.4-0.6,0.7-1,0.9s-0.9,0.2-1.4,0       C104.1,44.8,104.4,44.5,104.9,44.3z M105.8,45.2c0.3-0.2,0.5-0.5,0.7-0.8c0.4-0.1,0.8-0.1,1.3,0.1c-0.3,0.4-0.6,0.7-1.1,0.8       c-0.1,0-0.3,0.1-0.4,0.1C106.1,45.3,106,45.3,105.8,45.2z M107.7,43.8c-0.2,0-0.4-0.1-0.6-0.1l0.1-0.1c0.3-0.3,0.5-0.6,0.6-1       c0.3-0.2,0.7-0.3,1.1-0.3c-0.1,0.5-0.4,0.8-0.7,1.1C108,43.7,107.9,43.7,107.7,43.8z M108.7,43.8c0.1,0.1,0.2,0.1,0.2,0.2       c-0.1,0-0.1,0-0.2,0.1h-0.1c-0.1,0-0.2-0.1-0.2-0.1C108.5,44,108.6,43.9,108.7,43.8z M108.7,44.4L108.7,44.4       c0.2-0.1,0.4-0.1,0.4-0.1c0.1,0.1,0.2,0.3,0.2,0.4c-0.1,0-0.1,0-0.2,0c-0.2,0-0.3,0-0.4-0.1C108.8,44.6,108.7,44.6,108.7,44.4       L108.7,44.4z M109.2,45.1c0.2,0,0.3,0,0.4,0.1s0.1,0.3,0.2,0.5c-0.1,0-0.1,0-0.2,0s-0.3-0.1-0.4-0.1c-0.1-0.1-0.1-0.3-0.2-0.4       C109,45.1,109.1,45.1,109.2,45.1z M109.5,45.9c0.1,0,0.3,0.1,0.4,0.1c0,0.1,0.1,0.3,0.1,0.4c-0.1,0-0.1,0-0.2,0s-0.3,0-0.3-0.1       S109.4,46,109.5,45.9C109.3,45.9,109.4,45.9,109.5,45.9z M109.7,46.6c0.1,0,0.3,0.1,0.4,0.1c0,0.1,0.1,0.3,0.1,0.4       c-0.1,0-0.1,0-0.2,0s-0.3,0-0.3-0.1S109.6,46.7,109.7,46.6C109.6,46.6,109.6,46.6,109.7,46.6z M109.9,47.4c0.1,0,0.3,0,0.3,0.1       s0,0.3,0.1,0.4c-0.1,0-0.1,0-0.2,0s-0.3-0.1-0.3-0.1c0-0.1,0-0.3-0.1-0.4C109.7,47.4,109.8,47.4,109.9,47.4z M110,48.2       c0.1,0,0.3,0.1,0.3,0.1l0,0c0,0.1,0,0.3,0.1,0.4c-0.1,0-0.1,0-0.2-0.1c-0.1,0-0.3-0.1-0.3-0.1c0-0.1,0-0.3-0.1-0.4       C109.9,48.2,109.9,48.2,110,48.2z M110.1,48.9c0.1,0,0.3,0.1,0.3,0.1l0,0c0,0.1,0,0.3,0.1,0.4c-0.1,0-0.1,0-0.2-0.1       c-0.1,0-0.3-0.1-0.3-0.1c0-0.1,0-0.3-0.1-0.4C110,48.9,110,48.9,110.1,48.9z M110.2,49.7c0.1,0,0.3,0.1,0.3,0.1l0,0       c0,0.1,0,0.3,0,0.4c-0.1,0-0.1,0-0.2-0.1c-0.1,0-0.3-0.1-0.3-0.2c0-0.1,0-0.3,0-0.4C110.1,49.7,110.1,49.7,110.2,49.7z        M110,60.1c0.1,0,0.1,0.1,0.2,0.1c0.1,0.1,0.3,0.2,0.3,0.2l0,0c0,0.1,0,0.3-0.1,0.4c-0.1,0-0.1-0.1-0.2-0.1       c-0.1-0.1-0.3-0.2-0.3-0.2C110,60.3,110,60.2,110,60.1z M110.1,61c0.1,0.1,0.3,0.2,0.3,0.2l0,0c0,0.1,0,0.3-0.1,0.4       c-0.1,0-0.1-0.1-0.2-0.1c-0.1-0.1-0.3-0.2-0.3-0.2l0,0c0-0.1,0-0.3,0.1-0.4C110,60.9,110,60.9,110.1,61z M110,61.8       c0.1,0.1,0.3,0.2,0.3,0.2l0,0c0,0.1-0.1,0.3-0.1,0.4c-0.1,0-0.1-0.1-0.2-0.1c-0.1-0.1-0.3-0.2-0.3-0.2c0-0.1,0-0.3,0.1-0.4       C109.9,61.7,109.9,61.7,110,61.8z M110.1,64.1L110.1,64.1c0.1,0.1,0.2,0.2,0.3,0.2c-0.1,0.2-0.1,0.3-0.2,0.4       c-0.1-0.1-0.1-0.1-0.2-0.1c0,0-0.1,0-0.1-0.1C110,64.4,110,64.3,110.1,64.1z M110.3,63.9L110.3,63.9c-0.1-0.3,0-0.4,0-0.6l0,0       c0.1,0.1,0.3,0.2,0.3,0.2c0,0.1-0.1,0.3-0.1,0.4C110.4,64,110.3,63.9,110.3,63.9z M110.5,63.1L110.5,63.1c-0.1-0.3,0-0.4,0-0.6       l0,0c0.1,0.1,0.3,0.2,0.3,0.2c0,0.2-0.1,0.3-0.1,0.4C110.6,63.2,110.5,63.1,110.5,63.1z M110.7,62.3L110.7,62.3       c-0.1-0.3,0-0.4,0-0.6l0,0l0,0c0.1,0.1,0.3,0.2,0.3,0.2l0,0c0,0.1-0.1,0.3-0.1,0.4C110.8,62.4,110.7,62.3,110.7,62.3z        M110.8,61.5L110.8,61.5c-0.1-0.3-0.1-0.4,0-0.6l0,0c0.1,0.1,0.3,0.2,0.3,0.2l0,0c0,0.1,0,0.3-0.1,0.4       C110.9,61.6,110.9,61.5,110.8,61.5z M110.9,60.7L110.9,60.7c-0.1-0.3-0.1-0.4,0-0.6l0,0c0.1,0.1,0.3,0.2,0.3,0.2l0,0       c0,0.1,0,0.3-0.1,0.4C111,60.8,111,60.7,110.9,60.7z M111,59.9L111,59.9c-0.1-0.3-0.1-0.4-0.1-0.6l0,0l0,0       c0.1,0.1,0.3,0.1,0.3,0.2l0,0c0,0.1,0,0.3,0,0.4C111.1,60,111.1,59.9,111,59.9z M111.1,59.1L111.1,59.1       c-0.1-0.3-0.1-0.4-0.1-0.6l0,0c0.2,0.1,0.3,0.1,0.3,0.2l0,0c0,0.1,0,0.3,0,0.4C111.2,59.2,111.1,59.1,111.1,59.1z M111.1,58.3       C111.1,58.3,111,58.3,111.1,58.3c-0.1-0.3-0.1-0.4-0.1-0.6l0,0l0,0c0.2,0.1,0.3,0.1,0.3,0.2l0,0c0,0.1,0,0.3,0,0.4       C111.3,58.3,111.2,58.3,111.1,58.3z M111.2,57.5C111.2,57.5,111.1,57.5,111.2,57.5c-0.1-0.3-0.1-0.4-0.1-0.6c0,0,0,0,0.1,0       c0.1,0.1,0.3,0.1,0.3,0.2l0,0c0,0.1,0,0.3,0,0.4C111.3,57.5,111.2,57.5,111.2,57.5z M111.2,56.7c-0.1,0-0.1,0-0.2-0.1       c0-0.2,0-0.3,0-0.5l0,0l0,0c0.2,0.1,0.3,0.1,0.3,0.2l0,0c0,0.1,0,0.3,0,0.4C111.3,56.7,111.3,56.7,111.2,56.7z M111.2,55.9       c-0.1,0-0.1,0-0.2-0.1c0-0.2,0-0.3,0-0.5l0,0c0.1,0.1,0.3,0.1,0.3,0.2l0,0c0,0.1,0,0.3,0,0.4C111.4,55.9,111.3,55.9,111.2,55.9       z M111.2,55.1c-0.1,0-0.1,0-0.2-0.1c0,0,0,0,0-0.1s0-0.3,0-0.4c0,0,0,0,0.1,0c0.1,0.1,0.3,0.1,0.3,0.2l0,0c0,0.1,0,0.1,0,0.2       c0,0.1,0,0.2,0,0.2C111.4,55.1,111.3,55.1,111.2,55.1z M111.5,48.6L111.5,48.6c-0.1-0.1-0.1-0.3-0.2-0.4l0,0       c0.1,0,0.3,0.1,0.3,0.1l0,0c0,0.1,0,0.3,0.1,0.4C111.6,48.7,111.6,48.7,111.5,48.6z M111.4,47.9L111.4,47.9       c-0.1-0.1-0.2-0.3-0.2-0.4l0,0c0.1,0,0.3,0,0.3,0.1s0,0.3,0.1,0.4C111.5,47.9,111.4,47.9,111.4,47.9z M111.2,47.1L111.2,47.1       c-0.1-0.2-0.2-0.3-0.2-0.5l0,0c0.1,0,0.3,0.1,0.4,0.1c0,0.1,0.1,0.3,0.1,0.4C111.4,47.2,111.3,47.1,111.2,47.1z M111.1,46.4       L111.1,46.4c-0.1-0.2-0.2-0.3-0.2-0.4l0,0c0.1,0,0.3,0.1,0.4,0.1c0,0.1,0.1,0.3,0.1,0.4C111.2,46.4,111.1,46.4,111.1,46.4z        M111.1,44.8c-0.1-0.2-0.1-0.3-0.2-0.5l1.4-2.1c0.2,0.2,0.5,0.4,0.7,0.6L111.1,44.8z M107.8,38.6L107.8,38.6c0,0.2,0,0.3,0,0.5       c-0.2,0.1-0.4,0.3-0.6,0.5c-0.2-0.3-0.3-0.5-0.3-0.8l0,0c0-0.5,0.1-0.9,0.3-1.3C107.6,37.7,107.8,38.1,107.8,38.6z M106.1,34.3       c0.4,0.2,0.7,0.6,0.9,1c0.1,0.1,0.1,0.3,0.1,0.4c-0.1,0.2-0.1,0.3-0.2,0.5l0,0c-0.2-0.4-0.5-0.6-0.9-0.8c0-0.1-0.1-0.3-0.1-0.4       C106,34.7,106,34.5,106.1,34.3z M105.6,35.5c0.4,0.2,0.8,0.5,1,0.9c0.1,0.1,0.1,0.3,0.2,0.4c-0.2,0.2-0.3,0.4-0.4,0.7       c-0.3-0.2-0.5-0.4-0.6-0.6c-0.2-0.3-0.3-0.5-0.3-0.8C105.6,35.9,105.6,35.7,105.6,35.5z M106.3,37.8       C106.3,37.9,106.4,37.9,106.3,37.8c0,0.3,0,0.4,0,0.6c-0.1,0-0.1-0.1-0.2-0.1c-0.1-0.1-0.2-0.2-0.3-0.2l-0.1-0.1l-0.1,0.1       c0,0.1-0.1,0.1-0.1,0.2l-0.1-0.1c-0.1-0.1-0.1-0.2-0.2-0.3c0-0.3,0-0.6,0-0.9c0.1,0,0.1,0,0.2,0.1       C105.6,37.4,106,37.7,106.3,37.8z M105.1,34c0.1,0.1,0.2,0.2,0.3,0.4c0,0.2,0,0.5,0,0.7h-0.1c-0.1-0.1-0.2-0.2-0.3-0.3       c-0.1-0.3-0.1-0.7-0.2-1.1C104.9,33.8,105,33.9,105.1,34z M105.3,40.2c0-0.5,0-1,0-1.4c0.2,0.4,0.3,0.9,0.3,1.4       c0,1.9-1.5,3.4-3.4,3.4s-3.3-1.5-3.3-3.4c0-0.5,0.1-1.1,0.4-1.5c0,0.4,0,1,0,1.5c0,1.7,1.4,3,3,3S105.3,41.8,105.3,40.2z        M100,24.5c0.2-0.6,0.6-0.3,1.1,0.3l0,0l0.1,0.1l0,0c-0.5,1-0.7,2.5-0.6,4.1l0,0C100.4,28,99.7,25.4,100,24.5z M99.5,31.7       C99.5,31.7,99.5,31.6,99.5,31.7C99.5,31.6,99.5,31.6,99.5,31.7c0-0.3,0.3-0.8,0.5-0.9c0.3-0.2,0.6-0.2,0.7,0s0.1,0.4-0.3,0.6       c-0.3,0.1-0.3,0.4-0.5,0.5c0,0.1-0.1,0.1-0.2,0.1c0,0,0,0-0.1,0l0,0l0,0C99.6,31.9,99.5,31.8,99.5,31.7z M95.5,33.4l2.9-1.7       l0,0c0.2-0.5,0.7-1,1-1.3c0.2-0.2,0.6-0.5,0.9-0.8c-0.5,1.3-1,2.6-1.7,2.9c-0.6,0.3-2,0.9-2.3,1l0,0c-0.2,0.1-0.6,0.2-0.9,0.1       C95.4,33.5,95.4,33.5,95.5,33.4z M95.4,34.2c0.3,0,0.6,0,1-0.2c0.1-0.1,0.2-0.2,0.2-0.4c0-0.1-0.1-0.2-0.2-0.2       c0.5,0,0.7,0.4,0.5,0.8c0,0,0.5,0.5,1.7-0.3c1.4-0.9,4.2,0.3,5.1-2.5c-0.2,0-0.8-0.7,0.1-1.6c0.9-0.8,1.3-1.8,1.4-2.2       c0,0,0,0,0-0.1c0.2,0.2,0.3,0.6,0.3,1c0,0.3-0.1,0.6-0.2,1c-0.2,0.5-0.5,0.8-0.8,1.1c-0.3,0.3-0.5,0.5-0.7,1v0.1l0,0       c0.7,3.4,0,5.8-3.1,8.5c-1-1-1.2-2.7-1.1-3.5v-0.1c0.3,0,0.6,0.1,0.9,0.1v-0.3c-1.5,0-3.5-0.7-3.5-0.7       c-1.4-0.2-1.6-0.4-1.7-0.6c0.5,0.1,1.1,0.1,1.9,0v-0.3c-0.9,0.1-1.5,0.1-2,0l0,0C95.2,34.6,95.3,34.3,95.4,34.2z M86.8,42.9       L86.8,42.9L86.8,42.9C86.7,42.9,86.7,42.9,86.8,42.9c-0.2,0.2-0.4,0.6-0.4,1V44l-0.1-0.1c-0.3-0.3-0.1-1,0.1-1.4l0,0l0,0l0,0       c-0.2,0.3-0.4,0.6-0.4,1v0.1l0,0c-0.3-0.3-0.2-0.9,0.2-1.4c2.3-3.1,5.4-5.4,9-6.8c0.1,0.2,0.4,0.4,1,0.5       c-0.6,0.8-0.9,1.7-1.2,2.7c-0.1,0.2-0.3,0.3-0.5,0.4c-0.5,0.3-1,0.2-1.2-0.3c-0.3-0.5-0.1-1,0.3-1.2c0.2-0.1,0.5-0.2,0.7-0.2       l-0.2-0.6c-0.3,0.1-0.5,0.1-0.8,0.3c-0.8,0.4-1.2,1.2-0.7,2c0.5,0.9,1.4,0.8,2.1,0.5c0.1,0,0.1-0.1,0.2-0.1c0,0.2,0,0.5,0,0.7       l0,0c-2.3,1.2-4.2,3-5.7,5.2c-0.2,0.4-0.3,0.7-0.3,1l0,0c-0.3-0.3-0.1-1,0.1-1.4l0,0l0,0l0,0c-0.2,0.3-0.4,0.6-0.4,1V46h-0.2       c-0.3-0.3-0.1-1,0.1-1.4l0,0l0,0l0,0c-0.2,0.3-0.4,0.6-0.4,1v0.1L88,45.6c-0.3-0.3-0.1-1,0.1-1.4l0,0l0,0l0,0       c-0.2,0.3-0.4,0.6-0.4,1v0.1l-0.1-0.1c-0.3-0.3-0.1-1,0.1-1.4l0,0l0,0l0,0c-0.2,0.3-0.4,0.6-0.4,1v0.1l0.1,0.1       c-0.3-0.3-0.1-1,0.1-1.4l0,0l0,0l0,0c-0.2,0.3-0.4,0.6-0.4,1v0.1L87,44.6c-0.3-0.3-0.1-1,0.1-1.4l0,0l0,0l0,0       c-0.2,0.3-0.4,0.6-0.4,1v0.1l-0.1-0.1C86.4,44,86.6,43.3,86.8,42.9z M85.2,52c-0.2-0.3,0-1,0.2-1.3l0,0l0,0l0,0       c-0.2,0.3-0.4,0.6-0.4,1v0.1l-0.1-0.1c-0.3-0.3-0.1-1,0.1-1.4l0,0l0,0l0,0c-0.2,0.3-0.4,0.6-0.4,1v0.1l-0.1-0.1       c-0.3-0.3-0.1-1,0.1-1.4l0,0l0,0l0,0c-0.2,0.3-0.4,0.6-0.4,1V51l-0.1-0.1c-0.3-0.3-0.1-1,0.1-1.4l0,0l0,0l0,0       c-0.2,0.3-0.4,0.6-0.4,1v0.1v0.1c-0.3-0.3-0.1-1,0.1-1.4l0,0l0,0l0,0c-0.2,0.3-0.4,0.6-0.4,1v0.1l-0.1-0.1       c-0.3-0.3-0.1-1,0.1-1.4l0,0l0,0l0,0c-0.2,0.3-0.4,0.6-0.4,1V50l0,0c-0.3-0.3-0.1-1,0.1-1.4l0,0l0,0l0,0       c-0.2,0.3-0.4,0.6-0.4,1v0.1l0,0c-0.3-0.3-0.1-1,0.1-1.4l0,0l0,0l0,0c-0.2,0.3-0.4,0.6-0.4,1v0.1c-0.3-0.3-0.1-1.1,0.5-1.7       c1-1,2.3-2,3.7-2.8l0.2,0.2c-0.5,0.3-1,0.6-1.4,0.9l0,0l0,0l0,0l0,0l0,0c0,0,0.7-0.4,1.5-0.8l0.2,0.2c-0.5,0.3-1,0.6-1.4,0.9       l0,0l0,0c0,0,0.7-0.4,1.5-0.8l0.2,0.2c-0.6,0.3-1,0.6-1.4,0.9l0,0l0,0l0,0l0,0c0,0,0.7-0.4,1.5-0.8l0.2,0.2       c-0.6,0.3-1,0.6-1.4,0.9l0,0l0,0c0,0,0.7-0.4,1.5-0.8l0.2,0.2c-0.6,0.3-1,0.6-1.4,0.9l0,0l0,0l0,0l0,0c0,0,0.7-0.4,1.5-0.8       l0.2,0.2c-0.6,0.3-1,0.6-1.5,0.8l0,0l0,0l0,0l0,0l0,0c0,0,0.7-0.4,1.5-0.8l0.1,0.1l0,0c0,0,0.1,0.1,0.2,0.1       c-0.6,0.3-1.1,0.6-1.5,0.9l0,0l0,0l0,0l0,0c0,0,0.8-0.4,1.6-0.8c0.2,0.1,0.6,0.1,0.9,0c-0.5,0.2-1.4,0.7-2.2,1.2l0,0l0,0       c0,0,1.4-0.8,2.5-1.2c0,0.1,0,0.2,0,0.3c-1.9,0.8-3.5,1.9-4.7,3C85.5,51,85.2,51.6,85.2,52z M90.8,53c-1.2,1.2-3.1,3.5-3.4,5.9       c-0.4-0.7-0.5-1.4-0.5-2.3c0-0.7,0.1-1.6,0.3-2.7l0.1-0.3L87,53.8c-1.4,0.8-2,1.3-2.4,1.8c0.1-0.8,0.5-1.7,1-2.7       c0.6,0.4,1.4,0.2,2.2-0.6c0.3-0.3,0.7-0.6,1.1-0.8c-0.1,0.1-0.2,0.2-0.3,0.3l0,0l0,0l0,0l0,0l0,0c0.2-0.2,0.5-0.4,0.6-0.6       c0.1-0.1,0.2-0.1,0.3-0.2c0.1-0.1,0.2-0.1,0.3-0.2c-0.2,0.4-0.5,0.9-0.9,1.2l0,0l0,0l0,0l0,0l0,0c0.5-0.4,0.9-0.9,1.1-1.4       c0.1,0,0.2,0,0.3-0.1c-0.1,0.6-0.6,1.3-1,1.7l0,0l0,0l0,0l0,0l0,0c0.7-0.5,1.1-1.2,1.2-1.8c0.1,0,0.1,0,0.2,0       c0.1,0.7-0.4,1.5-1,2.1l0,0l0,0l0,0l0,0l0,0c0.6-0.4,1-1,1.1-1.5c0,0.2,0,0.4,0.1,0.6c-0.2,0.4-0.5,0.8-0.9,1.2l0,0l0,0l0,0       l0,0l0,0c0.4-0.3,0.7-0.6,0.9-0.9c0,0.2,0,0.3,0.1,0.4L90.8,53z M102.2,68.8c-3.2-0.8-5.8-3.1-7.7-6.5c1,2.5,3,4.7,5.4,6       c-2.4-1.2-4.4-3.2-5.9-6.1c-2-3.9-3.1-9.3-3.3-16c1.6-0.8,3.2-1.3,4.9-1.8c0.1,0,0.3-0.1,0.4-0.1c1.3,1.9,3.6,3.2,6.1,3.2       s4.7-1.2,6-3.1c0.1,0.1,0.2,0.2,0.3,0.3c0.8,1.3,1.5,5.1,1.5,10.1c0,3.6-0.4,6.9-1,8.8C107.3,66.4,105,68.1,102.2,68.8z        M108.2,66.3c-0.1,0-0.2,0-0.2,0h-0.1c0.1-0.1,0.2-0.2,0.3-0.4c0,0,0,0,0,0.1C108.2,66.1,108.2,66.3,108.2,66.3z M104.4,68.4       c1.8-1,3.3-2.4,4.4-4.1c-0.2,0.5-0.3,0.8-0.5,1l0,0C107.2,66.6,105.9,67.7,104.4,68.4z M108.5,66.2c0-0.1,0-0.1,0-0.2       s0-0.3,0-0.4c0.1-0.1,0.1-0.1,0.2-0.2c0,0.1,0.1,0.1,0.2,0.2s0.1,0.2,0.2,0.2C108.8,66,108.6,66.1,108.5,66.2z M109,65.4       c-0.1-0.1-0.2-0.2-0.2-0.3l0,0c0.1-0.1,0.1-0.3,0.2-0.4c0.1,0.1,0.1,0.1,0.2,0.1c0.1,0.1,0.2,0.2,0.2,0.2       C109.3,65.2,109.2,65.3,109,65.4C109.1,65.5,109,65.5,109,65.4z M109.1,66.2C109.1,66.1,109.1,66.1,109.1,66.2L109.1,66.2       c0.1-0.2,0.2-0.4,0.3-0.5c0.1,0.1,0.1,0.1,0.1,0.2C109.4,66,109.3,66.1,109.1,66.2z M109.6,65.4L109.6,65.4       c0-0.2,0.1-0.4,0.2-0.5l0,0c0.1,0.1,0.2,0.2,0.2,0.2C109.9,65.3,109.8,65.4,109.6,65.4C109.7,65.5,109.7,65.5,109.6,65.4z        M109.8,66.2C109.8,66.1,109.8,66.1,109.8,66.2c0.1-0.2,0.2-0.4,0.3-0.5c0.1,0.1,0.1,0.1,0.1,0.2       C110.1,66,109.9,66.1,109.8,66.2z M110.4,65.6C110.4,65.5,110.3,65.5,110.4,65.6c-0.1-0.1-0.1-0.1-0.2-0.2       c0.1-0.2,0.2-0.3,0.2-0.5l0,0l0,0c0.1,0.1,0.2,0.2,0.2,0.2C110.6,65.3,110.5,65.4,110.4,65.6z M110.8,64.8       c-0.1-0.1-0.1-0.1-0.2-0.1c0,0-0.1,0-0.1-0.1c0.1-0.1,0.1-0.3,0.2-0.5l0,0c0.1,0.1,0.2,0.2,0.2,0.2       C110.9,64.5,110.9,64.7,110.8,64.8z M111.1,64c-0.1,0-0.1-0.1-0.2-0.1l-0.1-0.1c0-0.2,0.1-0.3,0.1-0.5l0,0       c0.1,0.1,0.3,0.2,0.3,0.2C111.2,63.7,111.1,63.9,111.1,64z M111.3,63.2c-0.1,0-0.1-0.1-0.2-0.1L111,63c0-0.2,0.1-0.3,0.1-0.5       l0,0c0.1,0.1,0.3,0.2,0.3,0.2C111.4,62.9,111.4,63.1,111.3,63.2z M111.5,62.4c-0.1,0-0.1-0.1-0.2-0.1l-0.1-0.1       c0-0.2,0.1-0.3,0.1-0.5l0,0l0,0c0.1,0.1,0.3,0.2,0.3,0.2l0,0C111.6,62.1,111.5,62.3,111.5,62.4z M111.6,61.6       c-0.1,0-0.1-0.1-0.2-0.1l-0.1-0.1c0-0.2,0-0.3,0.1-0.5l0,0l0,0c0.1,0.1,0.3,0.2,0.3,0.2l0,0C111.7,61.3,111.7,61.5,111.6,61.6z        M111.8,60.8c-0.1,0-0.1-0.1-0.2-0.1l-0.1-0.1c0-0.2,0-0.3,0.1-0.5l0,0c0.1,0.1,0.3,0.2,0.3,0.2l0,0       C111.8,60.5,111.8,60.7,111.8,60.8z M111.8,60c-0.1,0-0.1-0.1-0.2-0.1l-0.1-0.1c0-0.2,0-0.3,0-0.5l0,0c0.1,0.1,0.3,0.1,0.3,0.2       l0,0C111.9,59.7,111.9,59.9,111.8,60z M111.9,59.2c-0.1,0-0.1-0.1-0.2-0.1l-0.1-0.1c0-0.2,0-0.3,0-0.5l0,0       c0.2,0.1,0.3,0.1,0.3,0.2l0,0C111.9,58.9,111.9,59.1,111.9,59.2z M112,58.4c-0.1,0-0.1-0.1-0.2-0.1c0,0-0.1,0-0.1-0.1       c0-0.2,0-0.3,0-0.5l0,0c0.2,0.1,0.3,0.1,0.3,0.2l0,0C112,58.1,112,58.2,112,58.4z M112,57.6c-0.1,0-0.1-0.1-0.2-0.1       c0,0-0.1,0-0.1-0.1c0-0.2,0-0.3,0-0.5c0,0,0,0,0.1,0c0.1,0.1,0.3,0.1,0.3,0.2l0,0C112,57.3,112,57.4,112,57.6z M112.1,56.8       c-0.1,0-0.1-0.1-0.2-0.1s-0.1,0-0.2-0.1c0-0.2,0-0.3,0-0.5l0,0c0.2,0.1,0.3,0.1,0.3,0.2l0,0C112.1,56.5,112.1,56.6,112.1,56.8z        M112.1,56c-0.1,0-0.1-0.1-0.2-0.1s-0.1,0-0.2-0.1c0-0.2,0-0.3,0-0.5l0,0c0.1,0.1,0.3,0.1,0.3,0.2l0,0       C112.1,55.7,112.1,55.8,112.1,56z M112.1,55.2c-0.1,0-0.1-0.1-0.2-0.1s-0.1,0-0.2-0.1c0,0,0,0,0-0.1s0-0.3,0-0.4c0,0,0,0,0.1,0       c0.1,0.1,0.3,0.1,0.3,0.2l0,0c0,0.1,0,0.1,0,0.2C112.1,55,112.1,55.1,112.1,55.2z M112.4,56.7c0-0.7,0-1.3,0-1.8       c0-1.9-0.1-6.9-1.2-9.7c0.8,0.3,1.6,0.6,2.4,1C113.5,50.2,113.1,53.7,112.4,56.7z M119.8,55.6c-0.4-0.6-0.9-1-2.4-1.8l-0.3-0.2       l0.1,0.3c0.2,1.1,0.3,2,0.3,2.7c0,0.9-0.2,1.6-0.5,2.3c-0.2-2.4-2.2-4.7-3.4-5.9l-0.2-0.2c0-0.1,0-0.3,0.1-0.5       c0.2,0.3,0.5,0.7,0.9,0.9l0,0l0,0l0,0l0,0l0,0c-0.4-0.4-0.7-0.8-0.9-1.2c0-0.2,0-0.4,0.1-0.6c0.1,0.5,0.5,1.1,1.1,1.5l0,0l0,0       l0,0l0,0l0,0c-0.6-0.6-1.1-1.4-1-2.1c0.1,0,0.1,0,0.2,0c0,0.6,0.5,1.3,1.2,1.8l0,0l0,0l0,0l0,0l0,0c-0.4-0.4-1-1.1-1-1.7       c0.1,0,0.2,0,0.3,0.1c0.2,0.5,0.5,1,1.1,1.4l0,0l0,0l0,0l0,0l0,0c-0.4-0.4-0.7-0.8-0.9-1.2c0.1,0,0.2,0.1,0.3,0.2       c0.1,0.1,0.2,0.1,0.3,0.2c0.2,0.2,0.4,0.4,0.6,0.6l0,0l0,0l0,0l0,0l0,0c-0.1-0.1-0.2-0.2-0.3-0.3c0.4,0.3,0.8,0.6,1.1,0.9       c0.8,0.8,1.6,0.9,2.2,0.6C119.4,53.8,119.7,54.7,119.8,55.6z M122,49.4L122,49.4c0,0,0-0.1,0-0.2c0-0.4-0.2-0.7-0.4-1l0,0l0,0       l0,0c0.2,0.4,0.4,1.1,0.1,1.4l-0.1,0.1c0-0.1,0-0.1,0-0.2c0-0.4-0.2-0.7-0.4-1l0,0l0,0l0,0c0.2,0.4,0.4,1.1,0.1,1.4l-0.1,0.1       c0-0.1,0-0.1,0-0.2c0-0.4-0.2-0.7-0.4-1l0,0l0,0l0,0c0.2,0.4,0.4,1.1,0.1,1.4l-0.1,0.1c0-0.1,0-0.1,0-0.2c0-0.4-0.2-0.7-0.4-1       l0,0l0,0l0,0c0.2,0.4,0.4,1.1,0.1,1.4l-0.1,0.1c0-0.1,0-0.1,0-0.2c0-0.4-0.2-0.7-0.4-1l0,0l0,0l0,0c0.2,0.4,0.4,1.1,0.1,1.4       l-0.1,0.1c0-0.1,0-0.1,0-0.2c0-0.4-0.2-0.7-0.4-1l0,0l0,0l0,0c0.2,0.4,0.4,1.1,0.1,1.4l-0.1,0.1c0-0.1,0-0.1,0-0.2       c0-0.4-0.2-0.7-0.4-1l0,0l0,0l0,0c0.2,0.4,0.4,1.1,0.1,1.4l-0.1,0.1c0-0.1,0-0.1,0-0.2c0-0.4-0.2-0.7-0.4-1l0,0l0,0l0,0       c0.2,0.4,0.4,1,0.2,1.3c0-0.5-0.3-1-0.7-1.5c-1.1-1.1-2.7-2.2-4.7-3c0-0.1,0-0.2,0-0.3c1.1,0.4,2.5,1.2,2.5,1.2l0,0l0,0       c-0.7-0.5-1.6-0.9-2.2-1.2c0.3,0.1,0.6,0.1,0.9,0c0.8,0.4,1.6,0.8,1.6,0.8l0,0l0,0l0,0l0,0c-0.4-0.3-0.9-0.6-1.5-0.9       c0.1,0,0.1-0.1,0.2-0.1l0,0l0,0l0.1-0.1c0.8,0.4,1.5,0.8,1.5,0.8l0,0l0,0l0,0l0,0l0,0c-0.4-0.3-0.9-0.6-1.4-0.8l0.2-0.2       c0.8,0.4,1.5,0.8,1.5,0.8l0,0l0,0l0,0l0,0c-0.4-0.3-0.9-0.6-1.4-0.9l0.2-0.2c0.8,0.4,1.5,0.8,1.5,0.8l0,0l0,0       c-0.4-0.3-0.9-0.6-1.4-0.9l0.2-0.2c0.8,0.4,1.5,0.8,1.5,0.8l0,0l0,0l0,0l0,0c-0.4-0.3-0.9-0.6-1.4-0.9l0.2-0.2       c0.8,0.4,1.5,0.8,1.5,0.8l0,0l0,0c-0.4-0.3-0.9-0.6-1.4-0.9l0.2-0.2c0.8,0.4,1.5,0.8,1.5,0.8l0,0l0,0l0,0l0,0l0,0       c-0.4-0.3-0.9-0.6-1.4-0.9l0.2-0.2c1.5,0.8,2.7,1.8,3.7,2.8C122.1,48.2,122.3,49,122,49.4z M103.8,31.1L103.8,31.1       c0.2-0.2,0.4-0.4,0.5-0.6c0.3-0.3,0.5-0.5,0.7-1c0.1-0.3,0.1-0.5,0.2-0.7c-0.2,0.4-0.6,0.9-1.1,1.4c-0.2,0.2-0.4,0.5-0.4,0.7       l0,0C103.7,31,103.8,31.1,103.8,31.1z"></path>
					<path d="M90,41.9c-0.8-0.7-1.4,0.5-1.7,0.2c-0.2-0.2,0-0.4,0.1-0.5c0.1-0.2,0.3-0.3,0.5-0.4l-0.4-0.4c-0.2,0.1-0.4,0.3-0.6,0.5       c-0.4,0.4-0.7,1-0.2,1.5c0.8,0.7,1.4-0.5,1.8-0.2c0.2,0.1,0.1,0.3-0.1,0.5s-0.4,0.4-0.6,0.5l0.4,0.5c0.2-0.1,0.5-0.4,0.6-0.5       C90.3,42.9,90.5,42.4,90,41.9z"></path>
					<path d="M91.1,41.2l0.8-0.7l0.5,0.3l0.6-0.5l-2.6-1.5l-0.6,0.7l0.9,2.8l0.6-0.5L91.1,41.2z M90.5,39.6L90.5,39.6l1,0.6L91,40.6       L90.5,39.6z"></path>
					<path d="M113.7,38.7l-2.6,1.5l0.6,0.5l0.5-0.3L113,41l-0.2,0.6l0.6,0.5l0.9-2.9L113.7,38.7z M113.3,40.5l-0.5-0.4l1-0.6l0,0       L113.3,40.5z"></path>
				</g>
			</g>
		</g>
		<g>
			<g>
				<path d="M19.8,41.2c-0.3,0.1-0.6,0.1-1,0.1c-0.9,0-2-0.5-2-1.8c0-1.2,0.9-1.8,2-1.8c0.4,0,0.7,0.1,1,0.2l-0.1,0.8      c-0.3-0.2-0.6-0.2-0.9-0.2c-0.7,0-1.1,0.5-1.1,1.1c0,0.7,0.5,1.1,1.2,1.1c0.3,0,0.6-0.1,0.9-0.2L19.8,41.2z"></path>
				<path d="M20.4,37.5h0.9v3.8h-0.9V37.5z"></path>
				<path d="M24.9,41.2h-0.8v-0.5l0,0c-0.2,0.4-0.5,0.5-1,0.5c-0.7,0-1-0.5-1-1v-1.6H23v1.3c0,0.5,0.2,0.7,0.4,0.7      c0.4,0,0.6-0.3,0.6-0.8v-1.1h0.9C24.9,38.7,24.9,41.2,24.9,41.2z"></path>
				<path d="M25.5,37.5h0.9V39l0,0c0.2-0.3,0.5-0.4,0.9-0.4c0.7,0,1.1,0.7,1.1,1.3c0,0.8-0.4,1.4-1.2,1.4c-0.4,0-0.8-0.2-0.9-0.5      l0,0v0.5h-0.8V37.5z M27,39.3c-0.3,0-0.6,0.3-0.6,0.7s0.3,0.7,0.6,0.7c0.3,0,0.5-0.3,0.5-0.7S27.3,39.3,27,39.3z"></path>
				<path d="M31.8,37.7h1.1l1.3,3.5h-1l-0.3-0.7h-1.3l-0.3,0.7h-0.9L31.8,37.7z M32.4,38.5L32.4,38.5l-0.5,1.4h0.9L32.4,38.5z"></path>
				<path d="M34.8,37.5h0.9v3.8h-0.9V37.5z"></path>
				<path d="M36.5,38.6h0.8v0.5l0,0c0.2-0.4,0.6-0.5,1-0.5c0.7,0,1.1,0.7,1.1,1.3c0,0.8-0.4,1.4-1.2,1.4c-0.3,0-0.7-0.1-0.8-0.4l0,0      v1.4h-0.9V38.6z M38,39.3c-0.3,0-0.6,0.3-0.6,0.7s0.3,0.7,0.6,0.7s0.5-0.3,0.5-0.7S38.3,39.3,38,39.3z"></path>
				<path d="M41,38.2h-0.9v-0.7H41V38.2z M40.1,38.6H41v2.6h-0.9V38.6z"></path>
				<path d="M41.8,38.6h0.8v0.5l0,0c0.2-0.4,0.5-0.5,1-0.5c0.7,0,1,0.5,1,1v1.6h-0.9V40c0-0.5-0.2-0.7-0.4-0.7      c-0.4,0-0.6,0.3-0.6,0.8v1.1h-0.9V38.6z"></path>
				<path d="M47,40.4c0.2,0.1,0.6,0.2,1,0.2c0.3,0,0.6-0.1,0.6-0.3c0-0.7-1.7-0.2-1.7-1.5c0-0.8,0.8-1.1,1.5-1.1      c0.3,0,0.7,0.1,0.9,0.1l-0.1,0.7c-0.2-0.1-0.5-0.2-0.8-0.2c-0.2,0-0.6,0-0.6,0.3c0,0.6,1.7,0.2,1.7,1.4c0,0.9-0.8,1.2-1.5,1.2      c-0.3,0-0.7-0.1-1-0.2L47,40.4z"></path>
				<path d="M52.9,41.2h-0.8v-0.5l0,0c-0.2,0.4-0.5,0.5-1,0.5c-0.7,0-1-0.5-1-1v-1.6H51v1.3c0,0.5,0.2,0.7,0.4,0.7      c0.4,0,0.6-0.3,0.6-0.8v-1.1h0.9C52.9,38.7,52.9,41.2,52.9,41.2z"></path>
				<path d="M54.6,38.2h-0.9v-0.7h0.9V38.2z M53.7,38.6h0.9v2.6h-0.9V38.6z"></path>
				<path d="M55.4,40.5c0.2,0.1,0.5,0.2,0.8,0.2c0.2,0,0.4,0,0.4-0.2c0-0.4-1.3-0.1-1.3-1.1c0-0.6,0.6-0.8,1.1-0.8      c0.3,0,0.6,0,0.9,0.2l-0.1,0.6c-0.2-0.1-0.5-0.2-0.7-0.2s-0.4,0-0.4,0.2c0,0.4,1.3,0.1,1.3,1.1c0,0.7-0.6,0.9-1.2,0.9      c-0.4,0-0.7,0-0.9-0.1L55.4,40.5z"></path>
				<path d="M58,40.5c0.2,0.1,0.5,0.2,0.8,0.2c0.2,0,0.4,0,0.4-0.2c0-0.4-1.3-0.1-1.3-1.1c0-0.6,0.6-0.8,1.1-0.8      c0.3,0,0.6,0,0.9,0.2l-0.1,0.6c-0.2-0.1-0.5-0.2-0.7-0.2s-0.4,0-0.4,0.2c0,0.4,1.3,0.1,1.3,1.1c0,0.7-0.6,0.9-1.2,0.9      c-0.4,0-0.7,0-0.9-0.1L58,40.5z"></path>
				<path d="M61.5,40.2c0.1,0.4,0.3,0.5,0.8,0.5c0.2,0,0.5-0.1,0.8-0.2v0.6c-0.3,0.1-0.6,0.2-1,0.2c-0.9,0-1.5-0.5-1.5-1.4      s0.6-1.4,1.4-1.4c1,0,1.3,0.7,1.3,1.5v0.2C63.3,40.2,61.5,40.2,61.5,40.2z M62.5,39.7c0-0.3-0.1-0.5-0.5-0.5      c-0.3,0-0.5,0.2-0.5,0.5H62.5z"></path>
				<path d="M68.5,41.2c-0.3,0.1-0.6,0.1-1,0.1c-0.9,0-2-0.5-2-1.8c0-1.2,0.9-1.8,2-1.8c0.4,0,0.7,0.1,1,0.2l-0.1,0.8      c-0.3-0.2-0.6-0.2-0.9-0.2c-0.7,0-1.1,0.5-1.1,1.1c0,0.7,0.5,1.1,1.2,1.1c0.3,0,0.6-0.1,0.9-0.2L68.5,41.2z"></path>
				<path d="M70.1,37.7h1.1l1.3,3.5h-1l-0.3-0.7h-1.3l-0.3,0.7h-0.8L70.1,37.7z M70.7,38.5L70.7,38.5l-0.5,1.4h0.9L70.7,38.5z"></path>
				<path d="M73.1,40.4c0.2,0.1,0.6,0.2,1,0.2c0.3,0,0.6-0.1,0.6-0.3c0-0.7-1.7-0.2-1.7-1.5c0-0.8,0.8-1.1,1.5-1.1      c0.3,0,0.7,0.1,0.9,0.1l-0.1,0.7c-0.2-0.1-0.5-0.2-0.8-0.2c-0.2,0-0.6,0-0.6,0.3c0,0.6,1.7,0.2,1.7,1.4c0,0.9-0.8,1.2-1.5,1.2      c-0.3,0-0.7-0.1-1-0.2L73.1,40.4z"></path>
				<path d="M28.1,44.6c-0.2-0.1-0.5-0.2-0.7-0.2c-0.8,0-1.3,0.6-1.3,1.4c0,0.8,0.6,1.4,1.3,1.4c0.3,0,0.6-0.1,0.8-0.2v0.5      c-0.3,0.1-0.6,0.1-0.8,0.1c-1.1,0-1.8-0.7-1.8-1.8s0.8-1.8,1.9-1.8c0.3,0,0.5,0,0.8,0.2L28.1,44.6z"></path>
				<path d="M28.8,43.8h0.5v3.8h-0.5V43.8z"></path>
				<path d="M32.6,47.5h-0.5v-0.4l0,0c-0.1,0.3-0.5,0.5-0.8,0.5c-0.7,0-1-0.4-1-1.1V45h0.5v1.3c0,0.6,0.1,0.9,0.5,0.9      c0.5,0,0.8-0.4,0.8-1.1V45h0.5V47.5z"></path>
				<path d="M33.5,43.8H34v1.6l0,0c0.1-0.2,0.4-0.4,0.8-0.4c0.7,0,1.1,0.6,1.1,1.3s-0.3,1.4-1.1,1.4c-0.5,0-0.7-0.2-0.9-0.4l0,0v0.4      h-0.5L33.5,43.8C33.4,43.8,33.5,43.8,33.5,43.8z M34.7,45.3c-0.5,0-0.8,0.5-0.8,1c0,0.4,0.2,1,0.8,1c0.5,0,0.7-0.6,0.7-1      C35.4,45.8,35.2,45.3,34.7,45.3z"></path>
				<path d="M39.4,44h0.5l1.5,3.5h-0.6l-0.4-0.9h-1.6l-0.4,0.9h-0.5L39.4,44z M39.6,44.5l-0.7,1.7h1.4L39.6,44.5z"></path>
				<path d="M42,43.8h0.5v3.8H42V43.8z"></path>
				<path d="M43.5,45H44v0.4l0,0c0.1-0.2,0.4-0.4,0.9-0.4c0.7,0,1.1,0.6,1.1,1.3s-0.3,1.4-1.1,1.4c-0.5,0-0.7-0.2-0.9-0.4l0,0v1.4      h-0.5V45z M44.7,45.3c-0.5,0-0.8,0.5-0.8,1c0,0.4,0.2,1,0.8,1c0.5,0,0.7-0.6,0.7-1C45.4,45.8,45.2,45.3,44.7,45.3z"></path>
				<path d="M47.2,44.4h-0.5v-0.5h0.5V44.4z M46.7,45h0.5v2.6h-0.5V45z"></path>
				<path d="M48.2,45h0.5v0.4l0,0c0.1-0.3,0.5-0.5,0.8-0.5c0.7,0,1,0.4,1,1.1v1.5H50v-1.3c0-0.6-0.1-0.9-0.5-0.9      c-0.5,0-0.8,0.4-0.8,1.1v1.2h-0.5V45z"></path>
				<path d="M52.5,44.9c0.8,0,1.3,0.6,1.3,1.3s-0.5,1.3-1.3,1.3s-1.3-0.6-1.3-1.3S51.8,44.9,52.5,44.9z M52.5,47.2      c0.6,0,0.8-0.5,0.8-1s-0.3-1-0.8-1s-0.8,0.5-0.8,1S52,47.2,52.5,47.2z"></path>
				<path d="M57.8,44.5c-0.3-0.1-0.4-0.1-0.7-0.1s-0.6,0.1-0.6,0.5c0,0.7,1.5,0.5,1.5,1.7c0,0.7-0.6,1-1.3,1c-0.2,0-0.5-0.1-0.7-0.1      l0.1-0.5c0.2,0.1,0.5,0.2,0.7,0.2c0.3,0,0.7-0.2,0.7-0.6c0-0.8-1.5-0.6-1.5-1.7c0-0.6,0.5-1,1.1-1c0.2,0,0.5,0,0.7,0.1V44.5z"></path>
				<path d="M59.9,47.5h-0.6L58.4,45h0.5l0.7,2.1l0,0l0.7-2.1h0.5L59.9,47.5z"></path>
				<path d="M62,44.4h-0.5v-0.5H62V44.4z M61.4,45h0.5v2.6h-0.5V45z"></path>
				<path d="M62.7,47.1l1.5-1.8h-1.4V45h2v0.4l-1.5,1.8h1.5v0.4h-2.1V47.1z"></path>
				<path d="M65.4,47.1l1.5-1.8h-1.4V45h2v0.4L66,47.2h1.5v0.4h-2.1V47.1z"></path>
				<path d="M70.1,47.4c-0.2,0.1-0.4,0.2-0.8,0.2c-0.9,0-1.3-0.6-1.3-1.4c0-0.8,0.5-1.3,1.2-1.3c0.9,0,1.1,0.6,1.1,1.4h-1.8      c0,0.5,0.4,0.9,0.8,0.9c0.3,0,0.7-0.2,0.8-0.3V47.4z M69.8,46c0-0.4-0.2-0.7-0.6-0.7c-0.5,0-0.7,0.4-0.7,0.7H69.8z"></path>
				<path d="M71.1,45h0.4v0.4l0,0c0.1-0.3,0.4-0.5,0.7-0.5c0.1,0,0.2,0,0.3,0v0.4c-0.1,0-0.2,0-0.3,0c-0.4,0-0.7,0.4-0.7,1v1.2H71      L71.1,45L71.1,45z"></path>
				<path d="M74.3,44.9c0.8,0,1.3,0.6,1.3,1.3s-0.5,1.3-1.3,1.3c-0.8,0-1.3-0.6-1.3-1.3S73.5,44.9,74.3,44.9z M74.3,47.2      c0.6,0,0.8-0.5,0.8-1s-0.3-1-0.8-1s-0.8,0.5-0.8,1S73.8,47.2,74.3,47.2z"></path>
				<path d="M24.4,50.8c-0.3-0.1-0.4-0.1-0.7-0.1c-0.3,0-0.6,0.1-0.6,0.5c0,0.7,1.5,0.5,1.5,1.7c0,0.7-0.6,1-1.3,1      c-0.2,0-0.5-0.1-0.7-0.1v-0.5c0.2,0.1,0.5,0.2,0.7,0.2c0.3,0,0.7-0.2,0.7-0.6c0-0.8-1.5-0.6-1.5-1.7c0-0.6,0.5-1,1.1-1      c0.2,0,0.5,0,0.7,0.1L24.4,50.8z"></path>
				<path d="M27.1,51.7c-0.2-0.1-0.4-0.1-0.5-0.1c-0.5,0-0.8,0.5-0.8,1s0.2,1,0.9,1c0.2,0,0.4-0.1,0.5-0.1v0.4      C27,54,26.8,54,26.6,54c-0.8,0-1.3-0.6-1.3-1.3c0-0.8,0.5-1.3,1.3-1.3c0.2,0,0.4,0,0.6,0.1L27.1,51.7z"></path>
				<path d="M27.8,50h0.5v1.6l0,0c0.2-0.3,0.5-0.4,0.8-0.4c0.7,0,1,0.4,1,1.1v1.5h-0.5v-1.3c0-0.6-0.1-0.9-0.5-0.9      c-0.5,0-0.8,0.4-0.8,1.1v1.2h-0.5V50z"></path>
				<path d="M33.9,53.8h-0.5l-0.7-2.1l0,0l-0.6,2.1h-0.5l-0.8-2.6h0.5l0.6,2.1l0,0l0.7-2.1h0.6l0.6,2.1l0,0l0.6-2.1h0.5L33.9,53.8z"></path>
				<path d="M37.3,53.7c-0.2,0.1-0.4,0.2-0.8,0.2c-0.9,0-1.3-0.6-1.3-1.4c0-0.8,0.5-1.3,1.2-1.3c0.9,0,1.1,0.6,1.1,1.4h-1.8      c0,0.5,0.4,0.9,0.8,0.9c0.3,0,0.7-0.2,0.8-0.3C37.3,53.2,37.3,53.7,37.3,53.7z M37,52.3c0-0.4-0.2-0.7-0.6-0.7      c-0.5,0-0.7,0.4-0.7,0.7H37z"></path>
				<path d="M38.8,50.7h-0.5v-0.5h0.5V50.7z M38.3,51.2h0.5v2.6h-0.5V51.2z"></path>
				<path d="M39.6,53.4l1.5-1.8h-1.4v-0.4h2v0.4l-1.5,1.8h1.5v0.4h-2.1V53.4z"></path>
				<path d="M44.3,53.7c-0.2,0.1-0.4,0.2-0.8,0.2c-0.9,0-1.3-0.6-1.3-1.4c0-0.8,0.5-1.3,1.2-1.3c0.9,0,1.1,0.6,1.1,1.4h-1.8      c0,0.5,0.4,0.9,0.8,0.9c0.3,0,0.7-0.2,0.8-0.3C44.3,53.2,44.3,53.7,44.3,53.7z M44,52.3c0-0.4-0.2-0.7-0.6-0.7      c-0.5,0-0.7,0.4-0.7,0.7H44z"></path>
				<path d="M45.3,51.2h0.4v0.4l0,0c0.1-0.3,0.4-0.5,0.7-0.5c0.1,0,0.2,0,0.3,0v0.4c-0.1,0-0.2,0-0.3,0c-0.4,0-0.7,0.4-0.7,1v1.2      h-0.5v-2.5C45.2,51.2,45.3,51.2,45.3,51.2z"></path>
				<path d="M50,50.3h0.5l1.5,3.5h-0.5l-0.4-0.9h-1.7L49,53.8h-0.5L50,50.3z M50.3,50.8l-0.7,1.7H51L50.3,50.8z"></path>
				<path d="M52.7,50h0.5v3.8h-0.5V50z"></path>
				<path d="M54.2,51.2h0.5v0.4l0,0c0.1-0.2,0.4-0.4,0.9-0.4c0.7,0,1.1,0.6,1.1,1.3s-0.3,1.4-1.1,1.4c-0.5,0-0.7-0.2-0.9-0.4l0,0      v1.4h-0.5V51.2z M55.4,51.6c-0.5,0-0.8,0.5-0.8,1c0,0.4,0.2,1,0.8,1c0.5,0,0.7-0.6,0.7-1C56.1,52,55.9,51.6,55.4,51.6z"></path>
				<path d="M59.3,53.7c-0.2,0.1-0.4,0.2-0.8,0.2c-0.9,0-1.3-0.6-1.3-1.4c0-0.8,0.5-1.3,1.2-1.3c0.9,0,1.1,0.6,1.1,1.4h-1.8      c0,0.5,0.4,0.9,0.8,0.9c0.3,0,0.7-0.2,0.8-0.3V53.7z M59,52.3c0-0.4-0.2-0.7-0.6-0.7c-0.5,0-0.7,0.4-0.7,0.7H59z"></path>
				<path d="M60.3,51.2h0.5v0.4l0,0c0.1-0.3,0.5-0.5,0.8-0.5c0.7,0,1,0.4,1,1.1v1.5h-0.5v-1.3c0-0.6-0.1-0.9-0.5-0.9      c-0.5,0-0.8,0.4-0.8,1.1v1.2h-0.5V51.2z"></path>
				<path d="M63.3,52.2h1.3v0.4h-1.3V52.2z"></path>
				<path d="M67.7,50.9c-0.2-0.1-0.5-0.2-0.7-0.2c-0.8,0-1.3,0.6-1.3,1.4c0,0.8,0.6,1.4,1.3,1.4c0.3,0,0.6-0.1,0.8-0.2v0.5      c-0.3,0.1-0.6,0.1-0.8,0.1c-1.1,0-1.8-0.7-1.8-1.8s0.8-1.8,1.9-1.8c0.3,0,0.5,0,0.8,0.2L67.7,50.9z"></path>
				<path d="M68.5,50H69v3.8h-0.5V50z"></path>
				<path d="M72.2,53.8h-0.4v-0.4l0,0c-0.1,0.3-0.5,0.5-0.8,0.5c-0.7,0-1-0.4-1-1.1v-1.5h0.5v1.3c0,0.6,0.1,0.9,0.5,0.9      c0.5,0,0.8-0.4,0.8-1.1v-1.2h0.5L72.2,53.8L72.2,53.8z"></path>
				<path d="M73.2,50h0.5v1.6l0,0c0.1-0.2,0.4-0.4,0.8-0.4c0.7,0,1.1,0.6,1.1,1.3s-0.3,1.4-1.1,1.4c-0.5,0-0.7-0.2-0.9-0.4l0,0v0.4      h-0.5V50H73.2z M74.4,51.6c-0.5,0-0.8,0.5-0.8,1c0,0.4,0.2,1,0.8,1c0.5,0,0.7-0.6,0.7-1C75.1,52,74.9,51.6,74.4,51.6z"></path>
				<path d="M34.4,57.1c-0.2-0.1-0.5-0.2-0.7-0.2c-0.8,0-1.3,0.6-1.3,1.4c0,0.8,0.6,1.4,1.3,1.4c0.3,0,0.6-0.1,0.8-0.2V60      c-0.3,0.1-0.6,0.1-0.8,0.1c-1.1,0-1.8-0.7-1.8-1.8s0.8-1.8,1.9-1.8c0.3,0,0.5,0,0.8,0.2L34.4,57.1z"></path>
				<path d="M35.2,56.3h0.5v3.8h-0.5V56.3z"></path>
				<path d="M39,60.1h-0.5v-0.4l0,0c-0.1,0.3-0.5,0.5-0.8,0.5c-0.7,0-1-0.4-1-1.1v-1.5h0.5v1.3c0,0.6,0.1,0.9,0.5,0.9      c0.5,0,0.8-0.4,0.8-1.1v-1.2H39V60.1z"></path>
				<path d="M39.9,56.3h0.5v1.6l0,0c0.1-0.2,0.4-0.4,0.8-0.4c0.7,0,1.1,0.6,1.1,1.3s-0.3,1.4-1.1,1.4c-0.5,0-0.7-0.2-0.9-0.4l0,0      v0.4h-0.5v-3.9C39.8,56.3,39.9,56.3,39.9,56.3z M41.1,57.8c-0.5,0-0.8,0.5-0.8,1c0,0.4,0.2,1,0.8,1c0.5,0,0.7-0.6,0.7-1      C41.8,58.3,41.6,57.8,41.1,57.8z"></path>
				<path d="M45.8,56.6h0.5l1.5,3.5h-0.5l-0.4-0.9h-1.7l-0.4,0.9h-0.5L45.8,56.6z M46,57l-0.7,1.7h1.4L46,57z"></path>
				<path d="M48.4,56.3h0.5v3.8h-0.5V56.3z"></path>
				<path d="M49.9,57.5h0.5v0.4l0,0c0.1-0.2,0.4-0.4,0.9-0.4c0.7,0,1.1,0.6,1.1,1.3s-0.3,1.4-1.1,1.4c-0.5,0-0.7-0.2-0.9-0.4l0,0      v1.4h-0.5V57.5z M51.1,57.8c-0.5,0-0.8,0.5-0.8,1c0,0.4,0.2,1,0.8,1c0.5,0,0.7-0.6,0.7-1C51.8,58.3,51.6,57.8,51.1,57.8z"></path>
				<path d="M53.6,56.9h-0.5v-0.5h0.5V56.9z M53.1,57.5h0.5v2.6h-0.5V57.5z"></path>
				<path d="M54.6,57.5h0.5v0.4l0,0c0.1-0.3,0.5-0.5,0.8-0.5c0.7,0,1,0.4,1,1.1V60h-0.5v-1.3c0-0.6-0.1-0.9-0.5-0.9      c-0.5,0-0.8,0.4-0.8,1.1v1.2h-0.5V57.5z"></path>
				<path d="M60.9,57.1C60.6,57,60.5,57,60.2,57s-0.6,0.1-0.6,0.5c0,0.7,1.5,0.5,1.5,1.7c0,0.7-0.6,1-1.3,1c-0.2,0-0.5-0.1-0.7-0.1      l0.1-0.5c0.2,0.1,0.5,0.2,0.7,0.2c0.3,0,0.7-0.2,0.7-0.6c0-0.8-1.5-0.6-1.5-1.7c0-0.6,0.5-1,1.1-1c0.2,0,0.5,0,0.7,0.1      C60.9,56.6,60.9,57.1,60.9,57.1z"></path>
				<path d="M63.1,60.1h-0.6l-0.9-2.6h0.5l0.7,2.1l0,0l0.7-2.1H64L63.1,60.1z"></path>
				<path d="M65.1,56.9h-0.5v-0.5h0.5V56.9z M64.6,57.5h0.5v2.6h-0.5V57.5z"></path>
				<path d="M65.9,59.7l1.5-1.8H66v-0.4h2v0.4l-1.5,1.8H68v0.4h-2.1V59.7z"></path>
				<path d="M68.6,59.7l1.5-1.8h-1.4v-0.4h2v0.4l-1.5,1.8h1.5v0.4h-2.1V59.7z"></path>
				<path d="M73.3,60c-0.2,0.1-0.4,0.2-0.8,0.2c-0.9,0-1.3-0.6-1.3-1.4c0-0.8,0.5-1.3,1.2-1.3c0.9,0,1.1,0.6,1.1,1.4h-1.8      c0,0.5,0.4,0.9,0.8,0.9c0.3,0,0.7-0.2,0.8-0.3V60z M73,58.5c0-0.4-0.2-0.7-0.6-0.7c-0.5,0-0.7,0.4-0.7,0.7H73z"></path>
				<path d="M74.3,57.5h0.4v0.4l0,0c0.1-0.3,0.4-0.5,0.7-0.5c0.1,0,0.2,0,0.3,0v0.4c-0.1,0-0.2,0-0.3,0c-0.4,0-0.7,0.4-0.7,1V60      h-0.5L74.3,57.5L74.3,57.5z"></path>
			</g>
		</g>
	</g>
	<g id="Schrift_franz">
	</g>
</g>
</svg>