<svg version="1.1" id="svg2" xmlns="http://www.w3.org/2000/svg" xmlns:xlink="http://www.w3.org/1999/xlink" x="0px" y="0px" viewBox="0 0 131.6 90.7" style="enable-background:new 0 0 131.6 90.7;" xml:space="preserve" role="img" aria-labelledby="title-svg2" width="131" height="90"><desc id="title-svg2">Logo Garde aérienne suisse de sauvetage</desc>
<g id="Hilfslinien">
</g>
<g id="Logotype">
	<g>
		<path d="M49.5,43.9l-0.6,1.4l0,0c-0.4-1.1-1.6-1.7-3.2-1.7c-3.5,0-5.7,1.8-6.8,4.7c-1,2.6,0.1,5.1,3.2,5.1c1.5,0,3.3-0.3,4.4-1.4    l0,0l-0.4,1c-0.5,1.4-1.3,2.5-3.2,2.5c-0.5,0-0.8-0.1-1.1-0.2c-0.5-0.4-0.3-1-0.3-1l-4.3,0.1c0,0-0.3,0.7,0.1,1.6    c0.3,0.7,1.3,1.7,4.7,1.7c1.8,0,4-0.3,5.6-1.4c1.7-1.2,2.4-2.2,3.1-3.9l3.1-8.4L49.5,43.9L49.5,43.9z M47.7,48.5    c-0.4,1.2-1.4,2.7-3.2,2.7s-1.8-1.5-1.3-2.8c0.5-1.2,1.5-2.7,3.3-2.7C48.3,45.8,48.2,47.3,47.7,48.5z"></path>
		<path d="M32,43.6c-3.7,0-6.9,1.5-8.1,4.9c-1.4,3.9,0.7,5.5,4.6,5.5c1.4,0,2.9-0.2,4.1-0.8c1.2-0.5,2.3-1.3,2.9-2.4    c0-0.1,0.1-0.1,0.1-0.2l-4-0.2c-0.4,0.9-1.2,1.4-2.6,1.4c-1.7,0-1.7-1.3-1.2-2.4h8.4C37.5,46.2,36.5,43.6,32,43.6z M32.7,47.6    h-4.1c0.5-1.3,1.2-2,2.8-2.1c0.7,0,1.1,0.2,1.3,0.6C32.9,46.5,32.9,47,32.7,47.6z"></path>
		<path d="M23.1,43.6c-1.6,0.1-2.7,0.6-3.6,2l0,0l0.6-1.7h-4.4l-3.6,9.8h4.5l1.4-3.8c0.6-1.9,1.7-3.1,4-3.1c0.2,0,0.9,0.1,1.1,0.1    l1.4-3.4C23.9,43.6,23.1,43.6,23.1,43.6z"></path>
		<path d="M63.1,43.6c-1.3,0-2.8,0.1-4.2,0.5c-2.4,0.8-2.8,2.6-2.8,2.6l4,0.1c0.2-0.7,0.9-1.4,1.9-1.5c1.8-0.1,1.1,1.3,0.8,2.1h-1.4    c-3.8,0-6.6,0.6-7.6,3.1c-0.4,1-0.3,1.9,0.3,2.6c0.4,0.6,1.4,1,2.8,1c2.2,0,3.3-0.9,4.1-1.6l0,0l-0.4,1.3h4.1l2.4-6.5    C67.9,45,65.8,43.6,63.1,43.6z M59.1,51.9c-0.8,0-1.4-0.6-1.2-1.3c0.2-0.9,1.2-1.6,4.2-1.5C61.7,50.5,61.1,51.9,59.1,51.9z"></path>
	</g>
	<g id="Schatten">
		<polygon style="fill:#CBCCCC;" points="110.2,47.9 98.2,47.9 102.6,35.8 88.3,35.8 83.9,47.9 91.1,47.9 86.7,59.9 79.5,59.9     75.1,71.9 89.4,71.9 93.8,59.9 105.9,59.9   "></polygon>
	</g>
	<g id="Symbol">
		<polygon style="fill:#C31622;" points="107,42.8 95,42.8 99.4,30.7 85.1,30.7 80.7,42.8 92.8,42.8 88.3,54.8 76.3,54.8 71.9,66.9     86.2,66.9 90.6,54.8 102.6,54.8   "></polygon>
	</g>
</g>
</svg>