<svg width="303" height="60" xmlns="http://www.w3.org/2000/svg">
 <!-- Created with Method Draw - http://github.com/duopixel/Method-Draw/ -->

 <g>
  <title>background</title> id="canvas_background" height="62" width="305" y="-1" x="-1"/>
  <g display="none" overflow="visible" y="0" x="0" height="100%" width="100%" id="canvasGrid">
   <rect fill="url(#gridpattern)" stroke-width="0" y="0" x="0" height="100%" width="100%"/>
  </g>
 </g>
 <g>
  <title>Layer 1</title>
  <style transform="matrix(0.15360623906011117,0,0,0.15360623906011117,0,0) " type="text/css">.st0{fill:#C21622;}
	.st1{fill:#141412;}</style>
  <g stroke="null" id="svg_27">
   <g stroke="null" transform="matrix(1.0222562701120788,0,0,1.0222562701120788,-572.0181054715608,-138.0663215381792) " id="svg_5">
    <g stroke="null" id="svg_6">
     <path stroke="null" id="svg_7" d="m673.064309,184.013949c0,0.5 0,1 0.2,1.4c0.2,0.4 0.5,0.6 1.2,0.6c0.6,0 1.2,-0.4 1.2,-1.2c0,-2.5 -5.8,-1.9 -5.8,-5.7c0,-2.5 2.5,-3.3 4.6,-3.3c2.2,0 4.2,1.1 4.1,3.6l-3.2,0c0,-0.8 -0.1,-1.3 -0.3,-1.5c-0.2,-0.2 -0.5,-0.3 -0.8,-0.3c-0.7,0 -1.1,0.5 -1.1,1.3c0,1.9 5.8,1.8 5.8,5.5c0,2 -1.7,3.6 -4.4,3.6c-2.9,0 -4.8,-0.7 -4.6,-4l3.1,0z" class="st0"/>
     <path stroke="null" id="svg_8" d="m684.264309,182.413949c0,1.4 0,3.5 1.5,3.5c1.2,0 1.4,-1.1 1.4,-2.1l3.3,0c0,1.3 -0.5,2.3 -1.3,3c-0.8,0.7 -1.9,1.1 -3.5,1.1c-4.2,0 -4.8,-2.6 -4.8,-6.2c0,-3.2 0.5,-5.9 4.8,-5.9c4.4,0 4.9,2.9 4.8,6.6l-6.2,0zm3,-1.9c0,-1.1 0,-2.8 -1.5,-2.8c-1.5,0 -1.5,1.8 -1.5,2.8l3,0z" class="st0"/>
     <path stroke="null" id="svg_9" d="m698.664309,180.213949c0,-1.7 -0.4,-2.3 -1.5,-2.3c-1.4,0 -1.5,1.2 -1.5,3.7c0,3.6 0.3,4.3 1.5,4.3c1,0 1.5,-0.9 1.5,-2.5l3.3,0c0,3.2 -1.7,4.5 -4.8,4.5c-4.2,0 -4.8,-2.6 -4.8,-6.2c0,-3.2 0.5,-5.9 4.8,-5.9c3,0 4.7,1.3 4.7,4.4l-3.2,0z" class="st0"/>
     <path stroke="null" id="svg_10" d="m703.964309,181.713949c0,-3.2 0.5,-5.9 4.8,-5.9c4.3,0 4.8,2.7 4.8,5.9c0,3.7 -0.6,6.2 -4.8,6.2c-4.3,0 -4.8,-2.5 -4.8,-6.2zm6.3,-0.2c0,-2.4 -0.1,-3.7 -1.5,-3.7c-1.4,0 -1.5,1.2 -1.5,3.7c0,3.6 0.3,4.3 1.5,4.3c1.2,0.1 1.5,-0.7 1.5,-4.3z" class="st0"/>
     <path stroke="null" id="svg_11" d="m721.464309,186.513949l0,0c-0.7,1 -1.6,1.4 -2.8,1.4c-1.6,0 -2.9,-0.9 -2.9,-2.6l0,-9.4l3.3,0l0,8.1c0,1 0.2,1.8 1.2,1.8c1,0 1.2,-0.8 1.2,-1.8l0,-8.1l3.3,0l0,9.4c0,0.8 0,1.6 0.1,2.3l-3.4,0l0,-1.1z" class="st0"/>
     <path stroke="null" id="svg_12" d="m730.864309,176.013949l0,1.5l0,0c0.6,-1.3 1.7,-1.7 3,-1.7l0,2.9c-2.9,-0.2 -2.9,1.5 -2.9,2.6l0,6.4l-3.3,0l0,-11.7l3.2,0z" class="st0"/>
     <path stroke="null" id="svg_13" d="m738.464309,184.013949c0,0.5 0,1 0.2,1.4c0.2,0.4 0.5,0.6 1.2,0.6c0.6,0 1.2,-0.4 1.2,-1.2c0,-2.5 -5.8,-1.9 -5.8,-5.7c0,-2.5 2.5,-3.3 4.6,-3.3c2.2,0 4.2,1.1 4.1,3.6l-3.2,0c0,-0.8 -0.1,-1.3 -0.3,-1.5c-0.2,-0.2 -0.5,-0.3 -0.8,-0.3c-0.7,0 -1.1,0.5 -1.1,1.3c0,1.9 5.8,1.8 5.8,5.5c0,2 -1.7,3.6 -4.4,3.6c-2.9,0 -4.8,-0.7 -4.6,-4l3.1,0z" class="st0"/>
     <path stroke="null" id="svg_14" d="m753.064309,186.013949l0,0c-0.6,1.3 -1.5,1.9 -3,1.9c-2.5,0 -3.2,-1.6 -3.2,-3.8c0,-3.5 3.5,-3.7 6.1,-3.6c0,-1.6 0.1,-3.2 -2,-3.2c-1.3,0 -1.9,0.9 -1.8,2.1l-2.1,0c0.1,-2.6 1.5,-3.5 4,-3.5c3,0 3.8,1.6 3.8,3.5l0,5.6c0,0.9 0.1,1.9 0.2,2.8l-2.1,0l0,-1.8l0.1,0zm-4.3,-1.8c0,1.1 0.6,2.2 1.8,2.2c1.2,0 2.6,-0.7 2.4,-4.5c-1.7,0 -4.2,-0.1 -4.2,2.3z" class="st1"/>
     <path stroke="null" id="svg_15" d="m760.964309,187.713949l-1.9,0l0,-16.7l1.9,0l0,16.7z" class="st1"/>
     <path stroke="null" id="svg_16" d="m766.764309,177.413949l0,0c0.7,-1.1 1.5,-1.6 2.7,-1.6c1.9,0 3.8,0.7 3.8,5.9c0,2.9 -0.1,6.3 -3.9,6.3c-1.1,0 -1.9,-0.5 -2.6,-1.4l-0.1,0l0,5.6l-1.9,0l0,-16.1l1.9,0l0,1.3l0.1,0zm4.6,4.3c0,-1.8 0,-4.3 -2.4,-4.3c-2.3,0 -2.1,3.2 -2.1,5c0,1.6 0.1,4 2.2,4c2,0 2.3,-1.6 2.3,-4.7z" class="st1"/>
     <path stroke="null" id="svg_17" d="m776.664309,171.013949l2.1,0l0,2l-2.1,0l0,-2zm2,16.7l-1.9,0l0,-11.7l1.9,0l0,11.7z" class="st1"/>
     <path stroke="null" id="svg_18" d="m788.764309,187.713949l0,-8.1c0,-1.3 -0.4,-2.3 -2.1,-2.3c-2.1,0 -2.4,1.9 -2.4,3.5l0,6.9l-1.9,0l0,-9.3c0,-0.8 0,-1.6 -0.1,-2.4l2,0l0,1.5l0.1,0c0.7,-1.3 1.6,-1.7 3.1,-1.7c2.5,0 3.1,1.5 3.1,3.8l0,8.1l-1.8,0z" class="st1"/>
     <path stroke="null" id="svg_19" d="m796.664309,184.013949c0,0.5 0,1 0.2,1.4c0.2,0.4 0.5,0.6 1.2,0.6c0.6,0 1.2,-0.4 1.2,-1.2c0,-2.5 -5.8,-1.9 -5.8,-5.7c0,-2.5 2.5,-3.3 4.6,-3.3c2.2,0 4.2,1.1 4.1,3.6l-3.2,0c0,-0.8 -0.1,-1.3 -0.3,-1.5c-0.2,-0.2 -0.5,-0.3 -0.8,-0.3c-0.7,0 -1.1,0.5 -1.1,1.3c0,1.9 5.8,1.8 5.8,5.5c0,2 -1.7,3.6 -4.4,3.6c-2.9,0 -4.8,-0.7 -4.6,-4l3.1,0z" class="st0"/>
     <path stroke="null" id="svg_20" d="m810.564309,186.513949l0,0c-0.7,1 -1.6,1.4 -2.8,1.4c-1.6,0 -2.9,-0.9 -2.9,-2.6l0,-9.4l3.3,0l0,8.1c0,1 0.2,1.8 1.2,1.8c1,0 1.2,-0.8 1.2,-1.8l0,-8.1l3.3,0l0,9.4c0,0.8 0,1.6 0.1,2.3l-3.4,0l0,-1.1z" class="st0"/>
     <path stroke="null" id="svg_21" d="m820.464309,171.013949l0,2.6l-3.3,0l0,-2.6l3.3,0zm0,16.7l-3.3,0l0,-11.7l3.3,0l0,11.7z" class="st0"/>
     <path stroke="null" id="svg_22" d="m826.364309,184.013949c0,0.5 0,1 0.2,1.4c0.2,0.4 0.5,0.6 1.2,0.6c0.6,0 1.2,-0.4 1.2,-1.2c0,-2.5 -5.8,-1.9 -5.8,-5.7c0,-2.5 2.5,-3.3 4.6,-3.3c2.2,0 4.2,1.1 4.1,3.6l-3.2,0c0,-0.8 -0.1,-1.3 -0.3,-1.5c-0.2,-0.2 -0.5,-0.3 -0.8,-0.3c-0.7,0 -1.1,0.5 -1.1,1.3c0,1.9 5.8,1.8 5.8,5.5c0,2 -1.7,3.6 -4.4,3.6c-2.9,0 -4.8,-0.7 -4.6,-4l3.1,0z" class="st0"/>
     <path stroke="null" id="svg_23" d="m837.164309,184.013949c0,0.5 0,1 0.2,1.4c0.2,0.4 0.5,0.6 1.2,0.6c0.6,0 1.2,-0.4 1.2,-1.2c0,-2.5 -5.8,-1.9 -5.8,-5.7c0,-2.5 2.5,-3.3 4.6,-3.3c2.2,0 4.2,1.1 4.1,3.6l-3.2,0c0,-0.8 -0.1,-1.3 -0.3,-1.5c-0.2,-0.2 -0.5,-0.3 -0.8,-0.3c-0.7,0 -1.1,0.5 -1.1,1.3c0,1.9 5.8,1.8 5.8,5.5c0,2 -1.7,3.6 -4.4,3.6c-2.9,0 -4.8,-0.7 -4.6,-4l3.1,0z" class="st0"/>
     <path stroke="null" id="svg_24" d="m848.364309,182.413949c0,1.4 0,3.5 1.5,3.5c1.2,0 1.4,-1.1 1.4,-2.1l3.3,0c0,1.3 -0.5,2.3 -1.3,3c-0.8,0.7 -1.9,1.1 -3.5,1.1c-4.2,0 -4.8,-2.6 -4.8,-6.2c0,-3.2 0.5,-5.9 4.8,-5.9c4.4,0 4.9,2.9 4.8,6.6l-6.2,0zm3,-1.9c0,-1.1 0,-2.8 -1.5,-2.8c-1.5,0 -1.5,1.8 -1.5,2.8l3,0z" class="st0"/>
    </g>
    <path stroke="null" id="svg_25" d="m638.364309,147.413949c0,0 30.9,-14.1 70.9,-10.3c40,3.8 73.4,28.4 73.4,28.4s-35.1,-19.2 -73.6,-23.1c-38.5,-4 -70.7,5 -70.7,5z" class="st1"/>
    <path stroke="null" id="svg_26" d="m610.164309,183.113949c0,0 37.9,-26.6 93.7,-33.4c55.8,-6.8 108.7,14.5 108.7,14.5s-53.6,-14.4 -107.4,-8.1c-53.8,6.2 -95,27 -95,27z" class="st1"/>
   </g>
  </g>
 </g>
</svg>